<svg xmlns="http://www.w3.org/2000/svg" xmlns:svg="http://www.w3.org/2000/svg" id="svg15063" width="2028" height="812" preserveAspectRatio="xMidYMid meet" version="1.0" viewBox="0 0 1521 609"><rect style="display:inline;fill:#e9c6af;stroke-width:.75" id="rect15121" width="142.044" height="493.855" x="120.674" y="37.711"/><rect style="fill:#c6e9af;stroke-width:.75" id="rect15541" width="135.759" height="493.697" x="262.718" y="37.868" ry="0"/><rect style="fill:#acf;stroke-width:.75" id="rect17727" width="146.262" height="493.693" x="398.477" y="37.868"/><rect style="fill:#f4d7e3;stroke-width:.75" id="rect18409" width="354.7" height="493.523" x="544.74" y="37.867" ry="0"/><g id="g15061" fill="#000" stroke="none" transform="translate(0.000000,609.000000) scale(0.100000,-0.100000)"><path id="path14491" d="M3270 5645 c0 -16 6 -25 15 -25 9 0 15 9 15 25 0 16 -6 25 -15 25 -9 0 -15 -9 -15 -25z"/><path id="path14493" d="M6370 5645 c0 -14 5 -25 10 -25 6 0 10 11 10 25 0 14 -4 25 -10 25 -5 0 -10 -11 -10 -25z"/><path id="path14495" d="M7160 5645 c0 -14 5 -25 10 -25 6 0 10 11 10 25 0 14 -4 25 -10 25 -5 0 -10 -11 -10 -25z"/><path id="path14497" d="M7960 5645 c0 -14 5 -25 10 -25 6 0 10 11 10 25 0 14 -4 25 -10 25 -5 0 -10 -11 -10 -25z"/><path id="path14499" d="M9660 5645 c0 -16 6 -25 15 -25 9 0 15 9 15 25 0 16 -6 25 -15 25 -9 0 -15 -9 -15 -25z"/><path id="path14501" d="M670 5640 c0 -5 7 -10 15 -10 12 0 15 -19 15 -114 0 -101 -2 -115 -17 -119 -12 -3 -8 -5 9 -6 14 0 28 4 30 11 3 8 11 7 28 -5 60 -42 140 5 140 81 0 33 -6 45 -31 66 -34 29 -75 33 -105 11 -30 -23 -34 -19 -34 40 0 52 -1 55 -25 55 -14 0 -25 -4 -25 -10z m181 -109 c52 -42 17 -131 -51 -131 -42 0 -80 35 -80 75 0 63 80 97 131 56z"/><path id="path14503" d="M1291 5637 c-14 -6 -27 -18 -29 -26 -4 -11 1 -10 19 2 45 32 109 15 109 -28 0 -26 -25 -45 -59 -45 -32 0 -25 -17 11 -24 43 -8 58 -23 58 -57 0 -52 -61 -74 -121 -43 -36 18 -52 11 -23 -11 46 -35 132 -26 154 16 17 31 11 67 -14 87 -24 18 -24 19 -5 35 41 35 8 107 -48 107 -16 0 -39 -6 -52 -13z"/><path id="path14505" d="M1592 5634 c-12 -8 -22 -26 -22 -40 0 -19 -5 -24 -25 -24 -14 0 -25 -4 -25 -10 0 -5 11 -10 25 -10 24 0 25 -2 25 -75 l0 -75 -30 0 c-16 0 -30 -4 -30 -10 0 -6 35 -10 85 -10 50 0 85 4 85 10 0 6 -20 10 -45 10 l-45 0 0 75 0 75 45 0 c25 0 45 5 45 10 0 6 -20 10 -45 10 -41 0 -45 2 -45 25 0 28 33 42 75 31 31 -8 54 2 34 15 -22 14 -83 10 -107 -7z"/><path id="path14507" d="M2066 5629 c-14 -11 -26 -27 -26 -35 0 -19 5 -18 34 11 14 14 37 25 51 25 29 0 65 -32 65 -57 0 -10 -36 -52 -80 -93 -44 -41 -80 -81 -80 -88 0 -9 25 -12 90 -12 72 0 90 3 90 14 0 8 -4 18 -10 21 -5 3 -10 1 -10 -4 0 -7 -27 -11 -69 -11 l-68 0 75 73 c85 84 94 114 48 154 -34 29 -75 29 -110 2z"/><path id="path14509" d="M2693 5626 c-24 -21 -28 -32 -31 -93 -6 -99 25 -153 88 -153 76 0 108 176 45 244 -30 32 -66 33 -102 2z m91 -15 c39 -43 26 -190 -19 -207 -26 -10 -61 4 -73 31 -17 37 -15 131 3 165 18 36 62 41 89 11z"/><path id="path14511" d="M3532 5618 c-47 -80 -82 -146 -82 -157 0 -7 22 -11 60 -11 57 0 60 -1 60 -25 0 -20 -5 -25 -25 -25 -14 0 -25 -4 -25 -10 0 -5 20 -10 45 -10 25 0 45 5 45 10 0 6 -4 10 -10 10 -14 0 -12 47 3 54 10 5 10 7 0 12 -9 4 -13 33 -13 95 0 81 -2 89 -19 89 -11 0 -28 -14 -39 -32z m38 -68 l0 -80 -50 0 -51 0 27 48 c48 84 66 112 70 112 2 0 4 -36 4 -80z"/><path id="path14513" d="M4058 5565 c-27 -47 -48 -92 -48 -100 0 -12 13 -15 55 -15 52 0 55 -1 55 -25 0 -18 -5 -25 -20 -25 -11 0 -20 -4 -20 -10 0 -5 20 -10 45 -10 25 0 45 5 45 10 0 6 -4 10 -10 10 -14 0 -12 47 3 54 10 5 10 7 0 12 -9 4 -13 33 -13 95 0 86 -1 89 -22 89 -18 0 -33 -18 -70 -85z m59 -92 c-3 -2 -23 -3 -45 -1 l-41 3 42 75 42 75 3 -74 c2 -40 1 -75 -1 -78z"/><path id="path14515" d="M4353 5630 c-60 -36 -86 -106 -63 -174 23 -71 90 -97 135 -51 35 34 34 86 -1 114 -34 27 -64 27 -99 -1 l-27 -21 7 34 c10 49 65 99 110 99 22 0 34 4 30 10 -10 16 -58 11 -92 -10z m58 -120 c24 -13 26 -72 3 -94 -16 -17 -51 -21 -70 -8 -23 15 -35 51 -24 72 19 36 56 48 91 30z"/><path id="path14517" d="M4844 5640 c-23 -9 -39 -28 -31 -36 2 -3 18 3 35 13 34 20 77 11 96 -19 13 -22 -17 -58 -51 -58 -12 0 -23 -4 -23 -10 0 -5 8 -10 18 -10 32 0 62 -29 62 -60 0 -52 -70 -78 -118 -44 -28 19 -42 10 -20 -12 9 -9 36 -18 60 -21 37 -4 49 -1 73 19 35 31 39 82 8 108 -20 16 -20 17 -2 39 25 31 24 47 -6 76 -25 26 -62 31 -101 15z"/><path id="path14519" d="M5060 5640 c0 -5 7 -10 15 -10 12 0 15 -19 15 -115 0 -96 -3 -115 -15 -115 -8 0 -15 -4 -15 -10 0 -5 11 -10 25 -10 22 0 25 4 25 39 0 22 5 43 10 46 6 4 29 -9 52 -27 32 -25 38 -34 25 -36 -33 -7 -17 -22 23 -22 22 0 40 5 40 10 0 6 -6 10 -13 10 -7 0 -32 20 -56 44 l-43 44 33 31 c19 17 42 31 52 31 9 0 17 5 17 10 0 6 -18 10 -41 10 -32 0 -40 -3 -36 -15 4 -8 -7 -25 -26 -41 l-32 -27 -3 81 c-3 80 -4 82 -27 82 -14 0 -25 -4 -25 -10z"/><path id="path14521" d="M5536 5629 c-14 -11 -26 -28 -26 -36 0 -12 7 -9 25 11 29 31 74 35 98 8 31 -34 20 -59 -58 -134 -41 -39 -75 -77 -75 -85 0 -10 21 -13 85 -13 81 0 85 1 85 22 0 17 -3 19 -12 10 -7 -7 -40 -12 -76 -12 l-64 0 76 73 c85 81 95 109 51 152 -30 31 -73 32 -109 4z"/><path id="path14523" d="M6680 5640 c0 -5 9 -10 20 -10 17 0 20 -7 20 -45 0 -48 -4 -52 -34 -30 -52 40 -146 -11 -146 -79 0 -72 91 -120 150 -79 17 12 25 13 28 5 2 -7 16 -11 30 -11 17 1 21 3 10 6 -16 4 -18 19 -18 129 l0 124 -30 0 c-16 0 -30 -4 -30 -10z m15 -115 c14 -13 25 -36 25 -50 0 -36 -42 -75 -80 -75 -38 0 -80 39 -80 75 0 36 42 75 80 75 19 0 40 -9 55 -25z"/><path id="path14525" d="M8400 5625 c0 -14 5 -25 10 -25 6 0 10 7 10 15 0 12 13 15 60 15 41 0 60 -4 60 -12 0 -7 -16 -62 -35 -123 -40 -127 -37 -115 -26 -115 10 0 81 217 81 249 0 20 -5 21 -80 21 -79 0 -80 0 -80 -25z"/><path id="path14527" d="M8660 5640 c0 -5 9 -10 20 -10 19 0 20 -7 20 -115 0 -108 -1 -115 -20 -115 -11 0 -20 -4 -20 -10 0 -5 11 -10 25 -10 23 0 25 4 25 40 0 56 22 62 66 19 19 -19 30 -35 24 -37 -25 -9 -7 -22 30 -22 22 0 40 5 40 10 0 6 -8 10 -18 10 -10 0 -37 20 -60 43 l-43 44 36 31 c20 18 42 32 50 32 8 0 15 5 15 10 0 6 -18 10 -40 10 -22 0 -40 -4 -40 -10 0 -5 5 -10 12 -10 13 0 -51 -59 -64 -60 -5 0 -8 36 -8 80 0 79 0 80 -25 80 -14 0 -25 -4 -25 -10z"/><path id="path14529" d="M9300 5640 c0 -5 7 -10 15 -10 12 0 15 -19 15 -114 0 -101 -2 -115 -17 -119 -12 -3 -8 -5 9 -6 14 0 28 4 30 11 3 8 11 7 28 -5 60 -42 140 5 140 81 0 33 -6 45 -31 66 -34 29 -75 33 -105 11 -30 -23 -34 -19 -34 40 0 52 -1 55 -25 55 -14 0 -25 -4 -25 -10z m181 -109 c52 -42 17 -131 -51 -131 -42 0 -80 35 -80 75 0 63 80 97 131 56z"/><path id="path14531" d="M2950 5600 c0 -23 -4 -30 -20 -30 -11 0 -20 -4 -20 -10 0 -5 9 -10 20 -10 18 0 20 -7 20 -65 0 -86 21 -110 87 -102 25 3 52 13 62 22 15 17 14 17 -9 10 -100 -29 -120 -17 -120 71 l0 64 55 0 c30 0 55 5 55 10 0 6 -25 10 -55 10 -54 0 -55 0 -55 30 0 17 -4 30 -10 30 -5 0 -10 -13 -10 -30z"/><path id="path14533" d="M12798 5624 c-5 -4 -8 -18 -8 -31 0 -16 -6 -23 -20 -23 -11 0 -20 -4 -20 -10 0 -5 9 -10 20 -10 18 0 20 -7 20 -65 0 -98 39 -126 127 -90 41 17 40 31 -1 15 -37 -14 -79 -13 -94 2 -7 7 -12 39 -12 75 l0 63 55 0 c30 0 55 5 55 10 0 6 -24 10 -54 10 -54 0 -55 1 -58 31 -2 17 -6 27 -10 23z"/><path id="path14535" d="M14382 5603 c-2 -28 -6 -33 -27 -33 -14 0 -25 -4 -25 -10 0 -5 11 -10 25 -10 24 0 25 -2 25 -69 0 -61 3 -72 22 -85 12 -9 32 -16 44 -16 31 0 84 20 84 32 0 6 -8 7 -17 3 -10 -4 -35 -9 -55 -12 -56 -8 -68 7 -68 83 l0 64 55 0 c30 0 55 5 55 10 0 6 -24 10 -54 10 -54 0 -55 0 -59 33 l-4 32 -1 -32z"/><path id="path14537" d="M10470 5569 c-47 -28 -89 -55 -93 -59 -5 -4 35 -33 88 -65 53 -31 99 -54 103 -51 7 7 12 4 -85 60 -46 26 -83 49 -83 51 0 2 36 24 80 50 74 44 103 66 83 65 -4 -1 -46 -24 -93 -51z"/><path id="path14539" d="M13010 5615 c0 -2 40 -28 90 -56 101 -60 103 -48 -20 -119 -41 -24 -70 -45 -64 -47 10 -3 207 108 201 113 -1 1 -44 27 -95 58 -85 51 -112 64 -112 51z"/><path id="path14541" d="M13640 5569 c-47 -28 -89 -54 -93 -59 -8 -7 133 -99 178 -116 41 -16 1 17 -75 60 -44 26 -80 49 -80 51 0 2 36 25 80 51 75 43 102 64 83 64 -4 0 -46 -23 -93 -51z"/><path id="path14543" d="M14600 5613 c0 -5 38 -30 85 -56 47 -27 85 -50 85 -52 0 -2 -37 -25 -82 -50 -96 -55 -93 -53 -85 -61 5 -5 197 103 197 111 0 4 -188 115 -194 115 -3 0 -6 -3 -6 -7z"/><path id="path14545" d="M420 5560 c0 -5 7 -10 15 -10 12 0 15 -15 15 -75 0 -60 -3 -75 -15 -75 -8 0 -15 -4 -15 -10 0 -5 16 -10 35 -10 19 0 35 5 35 10 0 6 -7 10 -15 10 -11 0 -15 13 -15 53 0 43 5 58 23 75 30 29 71 28 91 0 22 -30 22 -128 1 -128 -8 0 -15 -4 -15 -10 0 -5 16 -10 35 -10 19 0 35 5 35 10 0 6 -7 10 -15 10 -11 0 -15 17 -17 72 -3 67 -5 73 -30 87 -23 13 -32 14 -64 2 -28 -10 -39 -11 -42 -2 -5 14 -42 15 -42 1z"/><path id="path14547" d="M1740 5561 c0 -5 4 -11 10 -13 5 -1 17 -39 27 -82 10 -44 23 -81 30 -83 6 -2 19 19 29 47 10 27 21 50 25 50 4 0 15 -23 24 -51 10 -28 22 -48 28 -46 7 2 20 39 30 83 10 43 23 81 28 82 22 8 6 22 -26 22 -19 0 -35 -4 -35 -10 0 -5 7 -10 15 -10 18 0 18 -9 1 -80 -11 -44 -15 -51 -21 -35 -27 69 -35 85 -44 85 -5 0 -17 -20 -27 -45 -9 -25 -20 -45 -24 -45 -4 0 -11 17 -15 38 -3 20 -9 47 -12 60 -4 16 -1 22 11 22 9 0 16 5 16 10 0 6 -16 10 -35 10 -19 0 -35 -4 -35 -9z"/><path id="path14549" d="M3180 5560 c0 -6 27 -10 60 -10 l60 0 0 -99 c0 -117 -8 -131 -76 -131 -24 0 -44 -4 -44 -10 0 -5 22 -10 49 -10 42 0 53 4 70 26 18 23 21 41 21 135 l0 109 -70 0 c-40 0 -70 -4 -70 -10z"/><path id="path14551" d="M4500 5561 c0 -5 4 -11 10 -13 5 -1 17 -39 27 -82 10 -44 23 -81 30 -83 6 -2 19 19 29 47 10 27 21 50 25 50 4 0 15 -22 24 -50 9 -27 22 -50 29 -50 6 0 19 36 30 85 10 47 23 85 27 85 5 0 9 5 9 10 0 6 -16 10 -35 10 -19 0 -35 -4 -35 -10 0 -5 7 -10 16 -10 12 0 15 -6 11 -22 -3 -13 -9 -40 -12 -60 -4 -21 -10 -38 -14 -38 -4 0 -13 19 -21 43 -8 23 -21 42 -29 42 -8 0 -21 -19 -28 -42 -18 -53 -29 -54 -37 -5 -3 20 -9 47 -12 60 -5 16 -2 22 10 22 9 0 16 5 16 10 0 6 -16 10 -35 10 -19 0 -35 -4 -35 -9z"/><path id="path14553" d="M5811 5556 c-98 -54 -38 -191 75 -173 35 6 74 31 74 48 0 5 -15 0 -32 -11 -46 -28 -93 -26 -123 5 -72 71 38 168 119 104 l26 -20 0 33 c0 22 -3 29 -9 19 -6 -10 -13 -11 -29 -2 -27 15 -71 13 -101 -3z"/><path id="path14555" d="M6000 5560 c0 -5 7 -10 15 -10 12 0 15 -19 15 -115 0 -96 -3 -115 -15 -115 -8 0 -15 -4 -15 -10 0 -5 25 -10 55 -10 30 0 55 5 55 10 0 6 -13 10 -30 10 -29 0 -30 2 -30 45 0 48 4 52 34 30 52 -40 146 11 146 79 0 69 -93 121 -146 81 -25 -19 -34 -19 -34 0 0 9 -9 15 -25 15 -14 0 -25 -4 -25 -10z m185 -35 c14 -13 25 -36 25 -50 0 -36 -42 -75 -80 -75 -38 0 -80 39 -80 75 0 36 42 75 80 75 19 0 40 -9 55 -25z"/><path id="path14557" d="M6310 5560 c0 -5 16 -10 35 -10 l35 0 0 -75 0 -75 -40 0 c-22 0 -40 -4 -40 -10 0 -6 37 -10 90 -10 53 0 90 4 90 10 0 6 -18 10 -40 10 l-40 0 0 85 0 85 -45 0 c-25 0 -45 -4 -45 -10z"/><path id="path14559" d="M6810 5560 c0 -5 7 -10 15 -10 12 0 15 -15 15 -75 0 -60 -3 -75 -15 -75 -8 0 -15 -4 -15 -10 0 -5 18 -10 40 -10 22 0 40 5 40 10 0 6 -9 10 -20 10 -18 0 -20 7 -20 54 0 47 4 57 26 75 30 23 64 27 82 9 15 -15 16 -138 2 -138 -5 0 -10 -4 -10 -10 0 -5 16 -10 35 -10 19 0 35 5 35 10 0 6 -7 10 -15 10 -12 0 -15 14 -15 69 0 61 -3 72 -22 85 -27 19 -61 20 -91 5 -16 -9 -22 -9 -25 0 -5 14 -42 15 -42 1z"/><path id="path14561" d="M7100 5560 c0 -5 16 -10 35 -10 l35 0 0 -75 0 -75 -40 0 c-22 0 -40 -4 -40 -10 0 -6 37 -10 90 -10 53 0 90 4 90 10 0 6 -18 10 -40 10 l-40 0 0 85 0 85 -45 0 c-25 0 -45 -4 -45 -10z"/><path id="path14563" d="M7360 5560 c0 -5 9 -10 20 -10 18 0 20 -7 20 -75 0 -73 -1 -75 -25 -75 -14 0 -25 -4 -25 -10 0 -6 33 -10 80 -10 47 0 80 4 80 10 0 6 -20 10 -45 10 l-45 0 0 49 c0 45 3 53 35 76 28 22 40 25 67 20 29 -7 31 -6 19 9 -18 22 -47 20 -87 -5 l-34 -21 0 21 c0 17 -6 21 -30 21 -16 0 -30 -4 -30 -10z"/><path id="path14565" d="M7580 5560 c0 -5 6 -10 13 -10 8 0 31 -38 52 -85 25 -58 43 -85 53 -83 8 2 29 39 47 83 19 46 40 81 49 83 34 7 14 22 -29 22 -25 0 -45 -4 -45 -10 0 -5 9 -10 20 -10 25 0 25 -1 -14 -84 l-32 -70 -28 65 c-15 35 -30 70 -33 77 -3 7 3 12 16 12 12 0 21 5 21 10 0 6 -20 10 -45 10 -25 0 -45 -4 -45 -10z"/><path id="path14567" d="M7870 5560 c0 -6 27 -10 60 -10 l60 0 0 -93 c0 -116 -11 -137 -76 -137 -24 0 -44 -4 -44 -10 0 -16 83 -12 108 6 21 14 22 22 22 135 l0 119 -65 0 c-37 0 -65 -4 -65 -10z"/><path id="path14569" d="M8120 5561 c0 -5 4 -11 9 -13 5 -1 27 -40 50 -85 36 -72 39 -85 30 -112 -9 -26 -16 -31 -45 -31 -19 0 -34 -4 -34 -10 0 -6 27 -10 60 -10 33 0 60 4 60 10 0 6 -9 10 -20 10 -18 0 -14 12 36 113 31 61 60 114 65 115 22 9 6 22 -26 22 -19 0 -35 -4 -35 -10 0 -5 7 -10 15 -10 8 0 15 -2 15 -5 0 -10 -65 -135 -70 -135 -5 0 -70 125 -70 135 0 3 7 5 15 5 8 0 15 5 15 10 0 6 -16 10 -35 10 -19 0 -35 -4 -35 -9z"/><path id="path14571" d="M9610 5560 c0 -5 14 -10 30 -10 l30 0 0 -75 0 -75 -40 0 c-22 0 -40 -4 -40 -10 0 -6 37 -10 90 -10 53 0 90 4 90 10 0 6 -18 10 -40 10 l-40 0 0 85 0 85 -40 0 c-22 0 -40 -4 -40 -10z"/><path id="path14573" d="M9893 5560 c-24 -10 -53 -58 -53 -87 0 -10 9 -32 20 -50 24 -40 77 -54 115 -29 33 21 35 21 35 -12 0 -40 -28 -62 -78 -62 -23 0 -42 -4 -42 -10 0 -19 85 -11 108 10 20 19 22 31 22 125 0 98 1 105 20 105 11 0 20 5 20 10 0 6 -11 10 -25 10 -16 0 -25 -6 -25 -15 0 -19 -9 -19 -34 0 -22 17 -50 18 -83 5z m92 -35 c14 -13 25 -36 25 -50 0 -14 -11 -37 -25 -50 -69 -70 -170 30 -103 102 29 31 72 30 103 -2z"/><path id="path14575" d="M10691 5556 c-96 -53 -38 -193 72 -172 36 7 77 32 77 46 0 6 -15 1 -32 -10 -69 -42 -148 -12 -148 56 0 66 87 98 144 53 l26 -20 0 33 c0 21 -3 28 -8 20 -7 -10 -15 -10 -36 -2 -36 13 -66 12 -95 -4z"/><path id="path14577" d="M10949 5555 c-72 -39 -55 -151 26 -171 110 -28 175 119 75 171 -36 19 -67 19 -101 0z m111 -29 c67 -73 -35 -167 -114 -105 -19 15 -26 30 -26 54 0 67 92 101 140 51z"/><path id="path14579" d="M11140 5560 c0 -5 7 -10 15 -10 12 0 15 -15 15 -75 0 -60 -3 -75 -15 -75 -8 0 -15 -4 -15 -10 0 -5 16 -10 35 -10 19 0 35 5 35 10 0 6 -7 10 -15 10 -12 0 -15 13 -15 58 0 47 4 63 21 78 15 14 24 16 37 8 13 -9 18 -29 20 -88 3 -68 5 -76 22 -76 11 0 20 5 20 10 0 6 -7 10 -15 10 -12 0 -15 13 -15 58 0 64 21 97 57 90 15 -3 18 -15 21 -86 3 -74 5 -82 22 -82 11 0 20 5 20 10 0 6 -7 10 -15 10 -12 0 -15 15 -15 73 0 43 -5 78 -12 85 -17 17 -43 15 -58 -3 -12 -14 -15 -14 -30 0 -20 18 -41 19 -59 3 -11 -10 -14 -10 -18 0 -6 14 -43 16 -43 2z"/><path id="path14581" d="M11410 5560 c0 -5 7 -10 15 -10 12 0 15 -19 15 -115 0 -96 -3 -115 -15 -115 -8 0 -15 -4 -15 -10 0 -5 23 -10 50 -10 28 0 50 5 50 10 0 6 -11 10 -25 10 -23 0 -25 4 -25 45 l0 46 30 -16 c44 -23 78 -19 111 14 21 22 29 39 29 66 0 27 -8 44 -29 66 -33 33 -67 37 -111 14 -27 -14 -30 -14 -30 0 0 9 -9 15 -25 15 -14 0 -25 -4 -25 -10z m181 -29 c52 -42 17 -131 -51 -131 -42 0 -80 35 -80 75 0 63 80 97 131 56z"/><path id="path14583" d="M11725 5537 c-23 -23 -35 -44 -35 -62 0 -18 12 -39 35 -62 32 -32 39 -35 78 -30 116 16 116 168 0 184 -39 5 -46 2 -78 -30z m116 0 c43 -33 46 -80 6 -117 -46 -44 -137 -7 -137 55 0 57 85 97 131 62z"/><path id="path14585" d="M11960 5560 c0 -5 5 -10 10 -10 6 0 10 -32 10 -75 0 -60 -3 -75 -15 -75 -8 0 -15 -4 -15 -10 0 -5 18 -10 40 -10 22 0 40 5 40 10 0 6 -7 10 -15 10 -12 0 -15 13 -15 59 0 51 3 62 22 75 29 20 62 20 82 0 22 -22 23 -134 1 -134 -8 0 -15 -4 -15 -10 0 -5 16 -10 35 -10 19 0 35 5 35 10 0 6 -7 10 -15 10 -11 0 -15 17 -17 72 -3 67 -5 73 -30 87 -23 13 -33 14 -60 3 -21 -8 -34 -9 -36 -2 -5 13 -42 13 -42 0z"/><path id="path14587" d="M12274 5560 c-46 -18 -68 -85 -44 -131 14 -25 62 -49 97 -49 33 0 75 20 80 37 3 9 -3 8 -24 -2 -48 -25 -90 -19 -126 18 l-32 32 96 3 96 3 -5 24 c-10 55 -82 88 -138 65z m86 -20 c11 -6 24 -19 30 -30 10 -19 7 -20 -70 -20 -63 0 -80 3 -80 14 0 36 77 59 120 36z"/><path id="path14589" d="M12480 5560 c0 -5 7 -10 15 -10 12 0 15 -15 15 -75 0 -60 -3 -75 -15 -75 -8 0 -15 -4 -15 -10 0 -5 16 -10 35 -10 19 0 35 5 35 10 0 6 -7 10 -15 10 -11 0 -15 13 -15 53 0 43 5 58 23 75 30 29 71 28 91 0 22 -30 22 -128 1 -128 -8 0 -15 -4 -15 -10 0 -5 16 -10 35 -10 19 0 35 5 35 10 0 6 -7 10 -15 10 -11 0 -15 17 -17 72 -3 67 -5 73 -30 87 -23 13 -32 14 -64 2 -28 -10 -39 -11 -42 -2 -5 14 -42 15 -42 1z"/><path id="path14591" d="M13854 5560 c-94 -38 -53 -180 52 -180 32 0 94 26 94 39 0 14 -2 14 -36 -4 -40 -21 -87 -19 -118 6 -49 38 -35 49 64 49 50 0 90 4 90 10 0 24 -26 63 -51 76 -31 16 -63 17 -95 4z m100 -31 c14 -11 26 -25 26 -30 0 -5 -36 -9 -80 -9 -84 0 -94 6 -60 40 26 26 80 26 114 -1z"/><path id="path14593" d="M14070 5565 c0 -2 19 -22 43 -45 l42 -40 -47 -46 c-27 -25 -48 -47 -48 -50 0 -2 18 -4 40 -4 22 0 40 5 40 10 0 6 -10 10 -22 10 -21 0 -21 1 7 30 16 17 34 30 40 30 6 0 24 -13 40 -30 22 -23 25 -30 12 -30 -9 0 -17 -4 -17 -10 0 -5 18 -10 40 -10 22 0 40 3 40 8 -1 4 -23 24 -50 45 -28 21 -50 42 -50 45 0 4 20 23 45 42 24 19 44 38 45 43 0 4 -16 7 -35 7 -19 0 -35 -4 -35 -10 0 -5 7 -10 15 -10 10 0 3 -11 -17 -29 l-33 -30 -28 27 c-22 21 -25 28 -13 30 30 6 16 22 -19 22 -19 0 -35 -2 -35 -5z"/><path id="path14595" d="M960 5505 c0 -12 17 -15 90 -15 73 0 90 3 90 15 0 12 -17 15 -90 15 -73 0 -90 -3 -90 -15z"/><path id="path14597" d="M9060 5505 c0 -12 17 -15 90 -15 73 0 90 3 90 15 0 12 -17 15 -90 15 -73 0 -90 -3 -90 -15z"/><path id="path14599" d="M10120 5505 c0 -12 17 -15 90 -15 73 0 90 3 90 15 0 12 -17 15 -90 15 -73 0 -90 -3 -90 -15z"/><path id="path14601" d="M13354 5425 c-8 -21 2 -45 19 -45 8 0 20 7 27 15 10 12 10 18 0 30 -7 8 -19 15 -27 15 -7 0 -16 -7 -19 -15z"/><path id="path14603" d="M2260 5270 c0 -6 50 -10 130 -10 80 0 130 4 130 10 0 6 -50 10 -130 10 -80 0 -130 -4 -130 -10z"/><path id="path14605" d="M3670 5270 c0 -6 50 -10 130 -10 80 0 130 4 130 10 0 6 -50 10 -130 10 -80 0 -130 -4 -130 -10z"/><path id="path14607" d="M3270 4145 c0 -16 6 -25 15 -25 9 0 15 9 15 25 0 16 -6 25 -15 25 -9 0 -15 -9 -15 -25z"/><path id="path14609" d="M6370 4145 c0 -14 5 -25 10 -25 6 0 10 11 10 25 0 14 -4 25 -10 25 -5 0 -10 -11 -10 -25z"/><path id="path14611" d="M7160 4145 c0 -14 5 -25 10 -25 6 0 10 11 10 25 0 14 -4 25 -10 25 -5 0 -10 -11 -10 -25z"/><path id="path14613" d="M7960 4145 c0 -14 5 -25 10 -25 6 0 10 11 10 25 0 14 -4 25 -10 25 -5 0 -10 -11 -10 -25z"/><path id="path14615" d="M9660 4145 c0 -16 6 -25 15 -25 9 0 15 9 15 25 0 16 -6 25 -15 25 -9 0 -15 -9 -15 -25z"/><path id="path14617" d="M670 4140 c0 -5 7 -10 15 -10 12 0 15 -19 15 -114 0 -101 -2 -115 -17 -119 -12 -3 -8 -5 9 -6 14 0 28 4 30 11 3 8 11 7 28 -5 60 -42 140 5 140 81 0 33 -6 45 -31 66 -34 29 -75 33 -105 11 -30 -23 -34 -19 -34 40 0 52 -1 55 -25 55 -14 0 -25 -4 -25 -10z m181 -109 c52 -42 17 -131 -51 -131 -42 0 -80 35 -80 75 0 63 80 97 131 56z"/><path id="path14619" d="M1291 4137 c-14 -6 -27 -18 -29 -26 -4 -11 1 -10 19 2 45 32 109 15 109 -28 0 -26 -25 -45 -59 -45 -32 0 -25 -17 11 -24 43 -8 58 -23 58 -57 0 -52 -61 -74 -121 -43 -36 18 -52 11 -23 -11 46 -35 132 -26 154 16 17 31 11 67 -14 87 -24 18 -24 19 -5 35 41 35 8 107 -48 107 -16 0 -39 -6 -52 -13z"/><path id="path14621" d="M1592 4134 c-12 -8 -22 -26 -22 -40 0 -19 -5 -24 -25 -24 -14 0 -25 -4 -25 -10 0 -5 11 -10 25 -10 24 0 25 -2 25 -75 l0 -75 -30 0 c-16 0 -30 -4 -30 -10 0 -6 35 -10 85 -10 50 0 85 4 85 10 0 6 -20 10 -45 10 l-45 0 0 75 0 75 45 0 c25 0 45 5 45 10 0 6 -20 10 -45 10 -41 0 -45 2 -45 25 0 28 33 42 75 31 31 -8 54 2 34 15 -22 14 -83 10 -107 -7z"/><path id="path14623" d="M2066 4129 c-14 -11 -26 -27 -26 -35 0 -19 5 -18 34 11 14 14 37 25 51 25 29 0 65 -32 65 -57 0 -10 -36 -52 -80 -93 -44 -41 -80 -81 -80 -88 0 -9 25 -12 90 -12 72 0 90 3 90 14 0 8 -4 18 -10 21 -5 3 -10 1 -10 -4 0 -7 -27 -11 -69 -11 l-68 0 75 73 c85 84 94 114 48 154 -34 29 -75 29 -110 2z"/><path id="path14625" d="M2693 4126 c-24 -21 -28 -32 -31 -93 -6 -99 25 -153 88 -153 76 0 108 176 45 244 -30 32 -66 33 -102 2z m91 -15 c39 -43 26 -190 -19 -207 -26 -10 -61 4 -73 31 -17 37 -15 131 3 165 18 36 62 41 89 11z"/><path id="path14627" d="M3420 4140 c0 -5 9 -10 20 -10 19 0 20 -7 20 -115 0 -96 -3 -115 -15 -115 -8 0 -15 -4 -15 -10 0 -5 18 -10 40 -10 22 0 40 5 40 10 0 6 -7 10 -15 10 -12 0 -15 13 -15 59 0 51 3 62 22 75 29 20 62 20 82 0 22 -22 23 -134 1 -134 -8 0 -15 -4 -15 -10 0 -5 18 -10 40 -10 22 0 40 5 40 10 0 6 -7 10 -15 10 -12 0 -15 13 -15 59 0 95 -55 139 -118 95 -22 -15 -22 -15 -22 40 0 56 0 56 -30 56 -16 0 -30 -4 -30 -10z"/><path id="path14629" d="M4058 4065 c-27 -47 -48 -92 -48 -100 0 -12 13 -15 55 -15 52 0 55 -1 55 -25 0 -18 -5 -25 -20 -25 -11 0 -20 -4 -20 -10 0 -5 20 -10 45 -10 25 0 45 5 45 10 0 6 -4 10 -10 10 -14 0 -12 47 3 54 10 5 10 7 0 12 -9 4 -13 33 -13 95 0 86 -1 89 -22 89 -18 0 -33 -18 -70 -85z m59 -92 c-3 -2 -23 -3 -45 -1 l-41 3 42 75 42 75 3 -74 c2 -40 1 -75 -1 -78z"/><path id="path14631" d="M4353 4130 c-60 -36 -86 -106 -63 -174 23 -71 90 -97 135 -51 35 34 34 86 -1 114 -34 27 -64 27 -99 -1 l-27 -21 7 34 c10 49 65 99 110 99 22 0 34 4 30 10 -10 16 -58 11 -92 -10z m58 -120 c24 -13 26 -72 3 -94 -16 -17 -51 -21 -70 -8 -23 15 -35 51 -24 72 19 36 56 48 91 30z"/><path id="path14633" d="M5096 4125 c-39 -42 -47 -118 -20 -185 26 -65 82 -80 125 -34 21 23 24 35 24 109 0 74 -3 86 -24 109 -32 34 -74 34 -105 1z m101 -25 c26 -51 13 -170 -21 -192 -22 -15 -56 -8 -71 15 -22 35 -23 148 -1 182 23 35 74 32 93 -5z"/><path id="path14635" d="M5536 4129 c-14 -11 -26 -28 -26 -36 0 -12 7 -9 25 11 29 31 74 35 98 8 31 -34 20 -59 -58 -134 -41 -39 -75 -77 -75 -85 0 -10 21 -13 85 -13 81 0 85 1 85 22 0 17 -3 19 -12 10 -7 -7 -40 -12 -76 -12 l-64 0 76 73 c85 81 95 109 51 152 -30 31 -73 32 -109 4z"/><path id="path14637" d="M6680 4140 c0 -5 9 -10 20 -10 17 0 20 -7 20 -45 0 -48 -4 -52 -34 -30 -52 40 -146 -11 -146 -79 0 -72 91 -120 150 -79 17 12 25 13 28 5 2 -7 16 -11 30 -11 17 1 21 3 10 6 -16 4 -18 19 -18 129 l0 124 -30 0 c-16 0 -30 -4 -30 -10z m15 -115 c14 -13 25 -36 25 -50 0 -36 -42 -75 -80 -75 -38 0 -80 39 -80 75 0 36 42 75 80 75 19 0 40 -9 55 -25z"/><path id="path14639" d="M8400 4125 c0 -14 5 -25 10 -25 6 0 10 7 10 15 0 12 13 15 60 15 41 0 60 -4 60 -12 0 -7 -16 -62 -35 -123 -40 -127 -37 -115 -26 -115 10 0 81 217 81 249 0 20 -5 21 -80 21 -79 0 -80 0 -80 -25z"/><path id="path14641" d="M8660 4140 c0 -5 9 -10 20 -10 19 0 20 -7 20 -115 0 -108 -1 -115 -20 -115 -11 0 -20 -4 -20 -10 0 -5 11 -10 25 -10 23 0 25 4 25 40 0 56 22 62 66 19 19 -19 30 -35 24 -37 -25 -9 -7 -22 30 -22 22 0 40 5 40 10 0 6 -8 10 -18 10 -10 0 -37 20 -60 43 l-43 44 36 31 c20 18 42 32 50 32 8 0 15 5 15 10 0 6 -18 10 -40 10 -22 0 -40 -4 -40 -10 0 -5 5 -10 12 -10 13 0 -51 -59 -64 -60 -5 0 -8 36 -8 80 0 79 0 80 -25 80 -14 0 -25 -4 -25 -10z"/><path id="path14643" d="M9300 4140 c0 -5 7 -10 15 -10 12 0 15 -19 15 -114 0 -101 -2 -115 -17 -119 -12 -3 -8 -5 9 -6 14 0 28 4 30 11 3 8 11 7 28 -5 60 -42 140 5 140 81 0 33 -6 45 -31 66 -34 29 -75 33 -105 11 -30 -23 -34 -19 -34 40 0 52 -1 55 -25 55 -14 0 -25 -4 -25 -10z m181 -109 c52 -42 17 -131 -51 -131 -42 0 -80 35 -80 75 0 63 80 97 131 56z"/><path id="path14645" d="M2950 4100 c0 -23 -4 -30 -20 -30 -11 0 -20 -4 -20 -10 0 -5 9 -10 20 -10 18 0 20 -7 20 -65 0 -86 21 -110 87 -102 25 3 52 13 62 22 15 17 14 17 -9 10 -100 -29 -120 -17 -120 71 l0 64 55 0 c30 0 55 5 55 10 0 6 -25 10 -55 10 -54 0 -55 0 -55 30 0 17 -4 30 -10 30 -5 0 -10 -13 -10 -30z"/><path id="path14647" d="M12798 4124 c-5 -4 -8 -18 -8 -31 0 -16 -6 -23 -20 -23 -11 0 -20 -4 -20 -10 0 -5 9 -10 20 -10 18 0 20 -7 20 -65 0 -98 39 -126 127 -90 41 17 40 31 -1 15 -37 -14 -79 -13 -94 2 -7 7 -12 39 -12 75 l0 63 55 0 c30 0 55 5 55 10 0 6 -24 10 -54 10 -54 0 -55 1 -58 31 -2 17 -6 27 -10 23z"/><path id="path14649" d="M14382 4103 c-2 -28 -6 -33 -27 -33 -14 0 -25 -4 -25 -10 0 -5 11 -10 25 -10 24 0 25 -2 25 -69 0 -61 3 -72 22 -85 12 -9 32 -16 44 -16 31 0 84 20 84 32 0 6 -8 7 -17 3 -10 -4 -35 -9 -55 -12 -56 -8 -68 7 -68 83 l0 64 55 0 c30 0 55 5 55 10 0 6 -24 10 -54 10 -54 0 -55 0 -59 33 l-4 32 -1 -32z"/><path id="path14651" d="M10470 4069 c-47 -28 -89 -55 -93 -59 -5 -4 35 -33 88 -65 53 -31 99 -54 103 -51 7 7 12 4 -85 60 -46 26 -83 49 -83 51 0 2 36 24 80 50 74 44 103 66 83 65 -4 -1 -46 -24 -93 -51z"/><path id="path14653" d="M13010 4115 c0 -2 40 -28 90 -56 101 -60 103 -48 -20 -119 -41 -24 -70 -45 -64 -47 10 -3 207 108 201 113 -1 1 -44 27 -95 58 -85 51 -112 64 -112 51z"/><path id="path14655" d="M13640 4069 c-47 -28 -89 -54 -93 -59 -8 -7 133 -99 178 -116 41 -16 1 17 -75 60 -44 26 -80 49 -80 51 0 2 36 25 80 51 75 43 102 64 83 64 -4 0 -46 -23 -93 -51z"/><path id="path14657" d="M14600 4113 c0 -5 38 -30 85 -56 47 -27 85 -50 85 -52 0 -2 -37 -25 -82 -50 -96 -55 -93 -53 -85 -61 5 -5 197 103 197 111 0 4 -188 115 -194 115 -3 0 -6 -3 -6 -7z"/><path id="path14659" d="M420 4060 c0 -5 7 -10 15 -10 12 0 15 -15 15 -75 0 -60 -3 -75 -15 -75 -8 0 -15 -4 -15 -10 0 -5 16 -10 35 -10 19 0 35 5 35 10 0 6 -7 10 -15 10 -11 0 -15 13 -15 53 0 43 5 58 23 75 30 29 71 28 91 0 22 -30 22 -128 1 -128 -8 0 -15 -4 -15 -10 0 -5 16 -10 35 -10 19 0 35 5 35 10 0 6 -7 10 -15 10 -11 0 -15 17 -17 72 -3 67 -5 73 -30 87 -23 13 -32 14 -64 2 -28 -10 -39 -11 -42 -2 -5 14 -42 15 -42 1z"/><path id="path14661" d="M1740 4061 c0 -5 4 -11 10 -13 5 -1 17 -39 27 -82 10 -44 23 -81 30 -83 6 -2 19 19 29 47 10 27 21 50 25 50 4 0 15 -23 24 -51 10 -28 22 -48 28 -46 7 2 20 39 30 83 10 43 23 81 28 82 22 8 6 22 -26 22 -19 0 -35 -4 -35 -10 0 -5 7 -10 15 -10 18 0 18 -9 1 -80 -11 -44 -15 -51 -21 -35 -27 69 -35 85 -44 85 -5 0 -17 -20 -27 -45 -9 -25 -20 -45 -24 -45 -4 0 -11 17 -15 38 -3 20 -9 47 -12 60 -4 16 -1 22 11 22 9 0 16 5 16 10 0 6 -16 10 -35 10 -19 0 -35 -4 -35 -9z"/><path id="path14663" d="M3180 4060 c0 -6 27 -10 60 -10 l60 0 0 -99 c0 -117 -8 -131 -76 -131 -24 0 -44 -4 -44 -10 0 -5 22 -10 49 -10 42 0 53 4 70 26 18 23 21 41 21 135 l0 109 -70 0 c-40 0 -70 -4 -70 -10z"/><path id="path14665" d="M4564 4058 c-62 -30 -61 -138 3 -167 33 -15 65 -14 91 5 21 15 22 14 22 -14 0 -40 -28 -62 -78 -62 -23 0 -42 -4 -42 -10 0 -5 22 -10 48 -10 38 0 53 5 70 23 20 21 22 34 22 125 0 95 1 102 20 102 11 0 20 5 20 10 0 6 -13 10 -30 10 -20 0 -30 -5 -30 -16 0 -14 -2 -14 -22 0 -25 18 -63 20 -94 4z m90 -29 c52 -41 19 -129 -50 -129 -35 0 -64 34 -64 75 0 67 61 96 114 54z"/><path id="path14667" d="M4818 4041 c-86 -77 15 -201 121 -147 26 14 51 53 51 81 0 28 -25 67 -51 81 -44 22 -85 17 -121 -15z m126 -16 c15 -14 26 -35 26 -50 0 -34 -44 -75 -81 -75 -39 0 -81 39 -81 75 0 36 42 75 81 75 16 0 40 -11 55 -25z"/><path id="path14669" d="M5811 4056 c-98 -54 -38 -191 75 -173 35 6 74 31 74 48 0 5 -15 0 -32 -11 -46 -28 -93 -26 -123 5 -72 71 38 168 119 104 l26 -20 0 33 c0 22 -3 29 -9 19 -6 -10 -13 -11 -29 -2 -27 15 -71 13 -101 -3z"/><path id="path14671" d="M6000 4060 c0 -5 7 -10 15 -10 12 0 15 -19 15 -115 0 -96 -3 -115 -15 -115 -8 0 -15 -4 -15 -10 0 -5 25 -10 55 -10 30 0 55 5 55 10 0 6 -13 10 -30 10 -29 0 -30 2 -30 45 0 48 4 52 34 30 52 -40 146 11 146 79 0 69 -93 121 -146 81 -25 -19 -34 -19 -34 0 0 9 -9 15 -25 15 -14 0 -25 -4 -25 -10z m185 -35 c14 -13 25 -36 25 -50 0 -36 -42 -75 -80 -75 -38 0 -80 39 -80 75 0 36 42 75 80 75 19 0 40 -9 55 -25z"/><path id="path14673" d="M6310 4060 c0 -5 16 -10 35 -10 l35 0 0 -75 0 -75 -40 0 c-22 0 -40 -4 -40 -10 0 -6 37 -10 90 -10 53 0 90 4 90 10 0 6 -18 10 -40 10 l-40 0 0 85 0 85 -45 0 c-25 0 -45 -4 -45 -10z"/><path id="path14675" d="M6810 4060 c0 -5 7 -10 15 -10 12 0 15 -15 15 -75 0 -60 -3 -75 -15 -75 -8 0 -15 -4 -15 -10 0 -5 18 -10 40 -10 22 0 40 5 40 10 0 6 -9 10 -20 10 -18 0 -20 7 -20 54 0 47 4 57 26 75 30 23 64 27 82 9 15 -15 16 -138 2 -138 -5 0 -10 -4 -10 -10 0 -5 16 -10 35 -10 19 0 35 5 35 10 0 6 -7 10 -15 10 -12 0 -15 14 -15 69 0 61 -3 72 -22 85 -27 19 -61 20 -91 5 -16 -9 -22 -9 -25 0 -5 14 -42 15 -42 1z"/><path id="path14677" d="M7100 4060 c0 -5 16 -10 35 -10 l35 0 0 -75 0 -75 -40 0 c-22 0 -40 -4 -40 -10 0 -6 37 -10 90 -10 53 0 90 4 90 10 0 6 -18 10 -40 10 l-40 0 0 85 0 85 -45 0 c-25 0 -45 -4 -45 -10z"/><path id="path14679" d="M7360 4060 c0 -5 9 -10 20 -10 18 0 20 -7 20 -75 0 -73 -1 -75 -25 -75 -14 0 -25 -4 -25 -10 0 -6 33 -10 80 -10 47 0 80 4 80 10 0 6 -20 10 -45 10 l-45 0 0 49 c0 45 3 53 35 76 28 22 40 25 67 20 29 -7 31 -6 19 9 -18 22 -47 20 -87 -5 l-34 -21 0 21 c0 17 -6 21 -30 21 -16 0 -30 -4 -30 -10z"/><path id="path14681" d="M7580 4060 c0 -5 6 -10 13 -10 8 0 31 -38 52 -85 25 -58 43 -85 53 -83 8 2 29 39 47 83 19 46 40 81 49 83 34 7 14 22 -29 22 -25 0 -45 -4 -45 -10 0 -5 9 -10 20 -10 25 0 25 -1 -14 -84 l-32 -70 -28 65 c-15 35 -30 70 -33 77 -3 7 3 12 16 12 12 0 21 5 21 10 0 6 -20 10 -45 10 -25 0 -45 -4 -45 -10z"/><path id="path14683" d="M7870 4060 c0 -6 27 -10 60 -10 l60 0 0 -93 c0 -116 -11 -137 -76 -137 -24 0 -44 -4 -44 -10 0 -16 83 -12 108 6 21 14 22 22 22 135 l0 119 -65 0 c-37 0 -65 -4 -65 -10z"/><path id="path14685" d="M8120 4061 c0 -5 4 -11 9 -13 5 -1 27 -40 50 -85 36 -72 39 -85 30 -112 -9 -26 -16 -31 -45 -31 -19 0 -34 -4 -34 -10 0 -6 27 -10 60 -10 33 0 60 4 60 10 0 6 -9 10 -20 10 -18 0 -14 12 36 113 31 61 60 114 65 115 22 9 6 22 -26 22 -19 0 -35 -4 -35 -10 0 -5 7 -10 15 -10 8 0 15 -2 15 -5 0 -10 -65 -135 -70 -135 -5 0 -70 125 -70 135 0 3 7 5 15 5 8 0 15 5 15 10 0 6 -16 10 -35 10 -19 0 -35 -4 -35 -9z"/><path id="path14687" d="M9610 4060 c0 -5 14 -10 30 -10 l30 0 0 -75 0 -75 -40 0 c-22 0 -40 -4 -40 -10 0 -6 37 -10 90 -10 53 0 90 4 90 10 0 6 -18 10 -40 10 l-40 0 0 85 0 85 -40 0 c-22 0 -40 -4 -40 -10z"/><path id="path14689" d="M9893 4060 c-24 -10 -53 -58 -53 -87 0 -10 9 -32 20 -50 24 -40 77 -54 115 -29 33 21 35 21 35 -12 0 -40 -28 -62 -78 -62 -23 0 -42 -4 -42 -10 0 -19 85 -11 108 10 20 19 22 31 22 125 0 98 1 105 20 105 11 0 20 5 20 10 0 6 -11 10 -25 10 -16 0 -25 -6 -25 -15 0 -19 -9 -19 -34 0 -22 17 -50 18 -83 5z m92 -35 c14 -13 25 -36 25 -50 0 -14 -11 -37 -25 -50 -69 -70 -170 30 -103 102 29 31 72 30 103 -2z"/><path id="path14691" d="M10691 4056 c-96 -53 -38 -193 72 -172 36 7 77 32 77 46 0 6 -15 1 -32 -10 -69 -42 -148 -12 -148 56 0 66 87 98 144 53 l26 -20 0 33 c0 21 -3 28 -8 20 -7 -10 -15 -10 -36 -2 -36 13 -66 12 -95 -4z"/><path id="path14693" d="M10949 4055 c-72 -39 -55 -151 26 -171 110 -28 175 119 75 171 -36 19 -67 19 -101 0z m111 -29 c67 -73 -35 -167 -114 -105 -19 15 -26 30 -26 54 0 67 92 101 140 51z"/><path id="path14695" d="M11140 4060 c0 -5 7 -10 15 -10 12 0 15 -15 15 -75 0 -60 -3 -75 -15 -75 -8 0 -15 -4 -15 -10 0 -5 16 -10 35 -10 19 0 35 5 35 10 0 6 -7 10 -15 10 -12 0 -15 13 -15 58 0 47 4 63 21 78 15 14 24 16 37 8 13 -9 18 -29 20 -88 3 -68 5 -76 22 -76 11 0 20 5 20 10 0 6 -7 10 -15 10 -12 0 -15 13 -15 58 0 64 21 97 57 90 15 -3 18 -15 21 -86 3 -74 5 -82 22 -82 11 0 20 5 20 10 0 6 -7 10 -15 10 -12 0 -15 15 -15 73 0 43 -5 78 -12 85 -17 17 -43 15 -58 -3 -12 -14 -15 -14 -30 0 -20 18 -41 19 -59 3 -11 -10 -14 -10 -18 0 -6 14 -43 16 -43 2z"/><path id="path14697" d="M11410 4060 c0 -5 7 -10 15 -10 12 0 15 -19 15 -115 0 -96 -3 -115 -15 -115 -8 0 -15 -4 -15 -10 0 -5 23 -10 50 -10 28 0 50 5 50 10 0 6 -11 10 -25 10 -23 0 -25 4 -25 45 l0 46 30 -16 c44 -23 78 -19 111 14 21 22 29 39 29 66 0 27 -8 44 -29 66 -33 33 -67 37 -111 14 -27 -14 -30 -14 -30 0 0 9 -9 15 -25 15 -14 0 -25 -4 -25 -10z m181 -29 c52 -42 17 -131 -51 -131 -42 0 -80 35 -80 75 0 63 80 97 131 56z"/><path id="path14699" d="M11725 4037 c-23 -23 -35 -44 -35 -62 0 -18 12 -39 35 -62 32 -32 39 -35 78 -30 116 16 116 168 0 184 -39 5 -46 2 -78 -30z m116 0 c43 -33 46 -80 6 -117 -46 -44 -137 -7 -137 55 0 57 85 97 131 62z"/><path id="path14701" d="M11960 4060 c0 -5 5 -10 10 -10 6 0 10 -32 10 -75 0 -60 -3 -75 -15 -75 -8 0 -15 -4 -15 -10 0 -5 18 -10 40 -10 22 0 40 5 40 10 0 6 -7 10 -15 10 -12 0 -15 13 -15 59 0 51 3 62 22 75 29 20 62 20 82 0 22 -22 23 -134 1 -134 -8 0 -15 -4 -15 -10 0 -5 16 -10 35 -10 19 0 35 5 35 10 0 6 -7 10 -15 10 -11 0 -15 17 -17 72 -3 67 -5 73 -30 87 -23 13 -33 14 -60 3 -21 -8 -34 -9 -36 -2 -5 13 -42 13 -42 0z"/><path id="path14703" d="M12274 4060 c-46 -18 -68 -85 -44 -131 14 -25 62 -49 97 -49 33 0 75 20 80 37 3 9 -3 8 -24 -2 -48 -25 -90 -19 -126 18 l-32 32 96 3 96 3 -5 24 c-10 55 -82 88 -138 65z m86 -20 c11 -6 24 -19 30 -30 10 -19 7 -20 -70 -20 -63 0 -80 3 -80 14 0 36 77 59 120 36z"/><path id="path14705" d="M12480 4060 c0 -5 7 -10 15 -10 12 0 15 -15 15 -75 0 -60 -3 -75 -15 -75 -8 0 -15 -4 -15 -10 0 -5 16 -10 35 -10 19 0 35 5 35 10 0 6 -7 10 -15 10 -11 0 -15 13 -15 53 0 43 5 58 23 75 30 29 71 28 91 0 22 -30 22 -128 1 -128 -8 0 -15 -4 -15 -10 0 -5 16 -10 35 -10 19 0 35 5 35 10 0 6 -7 10 -15 10 -11 0 -15 17 -17 72 -3 67 -5 73 -30 87 -23 13 -32 14 -64 2 -28 -10 -39 -11 -42 -2 -5 14 -42 15 -42 1z"/><path id="path14707" d="M13854 4060 c-94 -38 -53 -180 52 -180 32 0 94 26 94 39 0 14 -2 14 -36 -4 -40 -21 -87 -19 -118 6 -49 38 -35 49 64 49 50 0 90 4 90 10 0 24 -26 63 -51 76 -31 16 -63 17 -95 4z m100 -31 c14 -11 26 -25 26 -30 0 -5 -36 -9 -80 -9 -84 0 -94 6 -60 40 26 26 80 26 114 -1z"/><path id="path14709" d="M14070 4065 c0 -2 19 -22 43 -45 l42 -40 -47 -46 c-27 -25 -48 -47 -48 -50 0 -2 18 -4 40 -4 22 0 40 5 40 10 0 6 -10 10 -22 10 -21 0 -21 1 7 30 16 17 34 30 40 30 6 0 24 -13 40 -30 22 -23 25 -30 12 -30 -9 0 -17 -4 -17 -10 0 -5 18 -10 40 -10 22 0 40 3 40 8 -1 4 -23 24 -50 45 -28 21 -50 42 -50 45 0 4 20 23 45 42 24 19 44 38 45 43 0 4 -16 7 -35 7 -19 0 -35 -4 -35 -10 0 -5 7 -10 15 -10 10 0 3 -11 -17 -29 l-33 -30 -28 27 c-22 21 -25 28 -13 30 30 6 16 22 -19 22 -19 0 -35 -2 -35 -5z"/><path id="path14711" d="M960 4005 c0 -12 17 -15 90 -15 73 0 90 3 90 15 0 12 -17 15 -90 15 -73 0 -90 -3 -90 -15z"/><path id="path14713" d="M9060 4005 c0 -12 17 -15 90 -15 73 0 90 3 90 15 0 12 -17 15 -90 15 -73 0 -90 -3 -90 -15z"/><path id="path14715" d="M10120 4005 c0 -12 17 -15 90 -15 73 0 90 3 90 15 0 12 -17 15 -90 15 -73 0 -90 -3 -90 -15z"/><path id="path14717" d="M13354 3925 c-8 -21 2 -45 19 -45 8 0 20 7 27 15 10 12 10 18 0 30 -7 8 -19 15 -27 15 -7 0 -16 -7 -19 -15z"/><path id="path14719" d="M2260 3770 c0 -6 50 -10 130 -10 80 0 130 4 130 10 0 6 -50 10 -130 10 -80 0 -130 -4 -130 -10z"/><path id="path14721" d="M3670 3770 c0 -6 50 -10 130 -10 80 0 130 4 130 10 0 6 -50 10 -130 10 -80 0 -130 -4 -130 -10z"/><path id="path14723" d="M6370 3175 c0 -14 5 -25 10 -25 6 0 10 11 10 25 0 14 -4 25 -10 25 -5 0 -10 -11 -10 -25z"/><path id="path14725" d="M7160 3175 c0 -14 5 -25 10 -25 6 0 10 11 10 25 0 14 -4 25 -10 25 -5 0 -10 -11 -10 -25z"/><path id="path14727" d="M7960 3175 c0 -14 5 -25 10 -25 6 0 10 11 10 25 0 14 -4 25 -10 25 -5 0 -10 -11 -10 -25z"/><path id="path14729" d="M9660 3175 c0 -16 6 -25 15 -25 9 0 15 9 15 25 0 16 -6 25 -15 25 -9 0 -15 -9 -15 -25z"/><path id="path14731" d="M670 3170 c0 -5 7 -10 15 -10 12 0 15 -20 15 -119 0 -105 -2 -120 -17 -124 -12 -3 -8 -5 9 -6 14 0 28 4 30 11 3 8 11 7 28 -5 37 -26 77 -21 111 12 23 24 29 38 29 74 0 38 -5 49 -31 71 -34 29 -75 33 -105 11 -30 -23 -34 -19 -34 40 0 52 -1 55 -25 55 -14 0 -25 -4 -25 -10z m180 -108 c33 -27 33 -97 1 -123 -53 -43 -131 -7 -131 61 0 67 78 104 130 62z"/><path id="path14733" d="M1291 3167 c-14 -6 -27 -18 -29 -26 -4 -11 1 -10 19 2 45 32 109 15 109 -28 0 -26 -25 -45 -59 -45 -32 0 -25 -17 10 -24 83 -16 75 -126 -9 -126 -13 0 -37 7 -53 16 -36 18 -52 11 -23 -11 29 -22 81 -29 115 -15 53 23 65 79 25 123 -22 24 -23 25 -5 41 41 34 8 106 -48 106 -16 0 -39 -6 -52 -13z"/><path id="path14735" d="M1592 3164 c-12 -8 -22 -26 -22 -40 0 -19 -5 -24 -25 -24 -14 0 -25 -4 -25 -10 0 -5 11 -10 25 -10 25 0 25 -1 25 -80 l0 -80 -30 0 c-16 0 -30 -4 -30 -10 0 -6 35 -10 85 -10 50 0 85 4 85 10 0 6 -20 10 -45 10 l-45 0 0 80 0 80 45 0 c25 0 45 5 45 10 0 6 -20 10 -45 10 -41 0 -45 2 -45 25 0 28 33 42 75 31 31 -8 54 2 34 15 -22 14 -83 10 -107 -7z"/><path id="path14737" d="M2066 3159 c-14 -11 -26 -27 -26 -35 0 -19 5 -18 34 11 14 14 37 25 51 25 27 0 65 -31 65 -54 0 -19 -56 -87 -112 -136 -71 -62 -66 -70 42 -70 72 0 90 3 90 14 0 8 -4 18 -10 21 -5 3 -10 1 -10 -4 0 -7 -28 -11 -70 -11 l-71 0 35 31 c63 55 119 128 119 156 0 34 -44 73 -82 73 -16 0 -40 -9 -55 -21z"/><path id="path14739" d="M2693 3156 c-25 -21 -28 -32 -31 -98 -3 -55 0 -83 12 -106 44 -85 136 -59 152 44 14 97 -23 184 -80 184 -14 0 -37 -11 -53 -24z m91 -15 c40 -44 26 -200 -19 -217 -26 -10 -61 4 -73 31 -17 37 -15 140 3 175 19 36 62 41 89 11z"/><path id="path14741" d="M3180 3170 c0 -5 9 -10 20 -10 19 0 20 -7 20 -120 0 -113 -1 -120 -20 -120 -11 0 -20 -4 -20 -10 0 -5 11 -10 25 -10 23 0 25 4 25 40 0 56 22 62 66 19 19 -19 30 -35 24 -37 -25 -9 -7 -22 30 -22 22 0 40 5 40 10 0 6 -8 10 -18 10 -10 0 -37 20 -61 44 l-42 43 34 37 c19 20 42 36 51 36 9 0 16 5 16 10 0 6 -18 10 -40 10 -22 0 -40 -4 -40 -10 0 -5 5 -10 10 -10 6 0 -5 -16 -24 -35 -20 -19 -38 -35 -41 -35 -3 0 -5 38 -5 85 0 84 0 85 -25 85 -14 0 -25 -4 -25 -10z"/><path id="path14743" d="M4039 3161 c-32 -26 -19 -36 19 -14 24 14 37 15 59 8 54 -20 36 -85 -24 -85 -13 0 -23 -4 -23 -10 0 -5 9 -10 20 -10 27 0 70 -46 70 -75 0 -28 -34 -55 -68 -55 -13 0 -37 7 -53 16 -35 18 -53 9 -25 -12 30 -21 83 -28 117 -14 52 22 64 71 29 120 -17 24 -18 29 -5 40 23 19 19 76 -7 94 -31 22 -81 20 -109 -3z"/><path id="path14745" d="M4240 3170 c0 -5 9 -10 20 -10 19 0 20 -7 20 -120 0 -100 -2 -120 -15 -120 -8 0 -15 -4 -15 -10 0 -5 18 -10 40 -10 22 0 40 5 40 10 0 6 -7 10 -15 10 -12 0 -15 13 -15 58 0 48 4 62 23 80 27 26 59 28 81 6 22 -22 23 -144 1 -144 -8 0 -15 -4 -15 -10 0 -5 18 -10 40 -10 22 0 40 5 40 10 0 6 -7 10 -15 10 -12 0 -15 14 -15 70 0 57 -4 74 -20 90 -24 24 -67 26 -98 4 -22 -15 -22 -15 -22 40 0 56 0 56 -30 56 -16 0 -30 -4 -30 -10z"/><path id="path14747" d="M4660 3170 c0 -5 7 -10 15 -10 11 0 15 -12 15 -45 l0 -46 -30 16 c-61 31 -123 7 -140 -54 -25 -93 55 -160 140 -116 17 9 30 11 30 5 0 -5 12 -9 28 -9 16 1 20 3 10 6 -16 4 -18 19 -18 134 l0 129 -25 0 c-14 0 -25 -4 -25 -10z m-1 -107 c12 -10 24 -35 27 -55 5 -30 2 -41 -19 -62 -59 -59 -155 -2 -128 76 20 56 77 76 120 41z"/><path id="path14749" d="M5096 3155 c-39 -42 -47 -126 -20 -195 26 -65 82 -80 125 -34 22 23 24 34 24 114 0 80 -2 91 -24 114 -32 34 -74 34 -105 1z m101 -25 c16 -31 17 -144 2 -173 -23 -44 -70 -51 -94 -14 -22 35 -23 158 -1 192 23 35 74 32 93 -5z"/><path id="path14751" d="M5536 3159 c-14 -11 -26 -28 -26 -36 0 -12 7 -9 25 11 29 31 74 35 98 8 34 -37 15 -75 -79 -164 -75 -71 -72 -78 31 -78 81 0 85 1 85 22 0 17 -3 19 -12 10 -7 -7 -40 -12 -77 -12 l-66 0 53 48 c102 92 123 142 77 187 -30 31 -73 32 -109 4z"/><path id="path14753" d="M6680 3170 c0 -5 9 -10 20 -10 17 0 20 -7 20 -45 0 -48 -4 -52 -34 -30 -46 35 -119 6 -137 -55 -9 -31 -9 -46 1 -70 22 -54 93 -76 140 -43 17 12 25 13 28 5 2 -7 16 -11 30 -11 17 1 21 3 10 6 -16 4 -18 19 -18 134 l0 129 -30 0 c-16 0 -30 -4 -30 -10z m9 -107 c12 -10 24 -35 27 -55 5 -30 2 -41 -19 -62 -17 -17 -37 -26 -57 -26 -20 0 -40 9 -57 26 -21 21 -24 32 -19 62 6 43 37 72 76 72 15 0 37 -8 49 -17z"/><path id="path14755" d="M8400 3155 c0 -14 5 -25 10 -25 6 0 10 7 10 15 0 12 13 15 60 15 39 0 60 -4 60 -12 0 -12 -20 -83 -51 -182 -17 -54 -18 -79 -3 -64 9 10 73 231 74 256 0 21 -4 22 -80 22 -79 0 -80 0 -80 -25z"/><path id="path14757" d="M8660 3170 c0 -5 9 -10 20 -10 19 0 20 -7 20 -120 0 -113 -1 -120 -20 -120 -11 0 -20 -4 -20 -10 0 -5 11 -10 25 -10 23 0 25 4 25 40 0 56 22 62 66 19 19 -19 30 -35 24 -37 -25 -9 -7 -22 30 -22 22 0 40 5 40 10 0 6 -8 10 -18 10 -10 0 -37 20 -61 44 l-42 43 34 37 c19 20 42 36 51 36 9 0 16 5 16 10 0 6 -18 10 -40 10 -22 0 -40 -4 -40 -10 0 -5 5 -10 10 -10 6 0 -5 -16 -24 -35 -20 -19 -38 -35 -41 -35 -3 0 -5 38 -5 85 0 84 0 85 -25 85 -14 0 -25 -4 -25 -10z"/><path id="path14759" d="M9300 3170 c0 -5 7 -10 15 -10 12 0 15 -20 15 -119 0 -105 -2 -120 -17 -124 -12 -3 -8 -5 9 -6 14 0 28 4 30 11 3 8 11 7 28 -5 37 -26 77 -21 111 12 23 24 29 38 29 74 0 38 -5 49 -31 71 -34 29 -75 33 -105 11 -30 -23 -34 -19 -34 40 0 52 -1 55 -25 55 -14 0 -25 -4 -25 -10z m180 -108 c33 -27 33 -97 1 -123 -53 -43 -131 -7 -131 61 0 67 78 104 130 62z"/><path id="path14761" d="M2950 3130 c0 -23 -4 -30 -20 -30 -11 0 -20 -4 -20 -10 0 -5 9 -10 20 -10 18 0 20 -7 20 -70 0 -91 19 -115 87 -107 25 3 52 13 62 22 15 17 14 17 -9 10 -101 -30 -120 -18 -120 76 l0 69 55 0 c30 0 55 5 55 10 0 6 -25 10 -55 10 -54 0 -55 0 -55 30 0 17 -4 30 -10 30 -5 0 -10 -13 -10 -30z"/><path id="path14763" d="M12798 3154 c-5 -4 -8 -18 -8 -31 0 -16 -6 -23 -20 -23 -11 0 -20 -4 -20 -10 0 -5 9 -10 20 -10 18 0 20 -7 20 -70 0 -57 4 -74 20 -90 24 -24 58 -25 107 -5 41 17 40 31 -1 15 -37 -14 -79 -13 -94 2 -7 7 -12 40 -12 80 l0 68 55 0 c30 0 55 5 55 10 0 6 -24 10 -54 10 -54 0 -55 1 -58 31 -2 17 -6 27 -10 23z"/><path id="path14765" d="M14382 3133 c-2 -28 -6 -33 -27 -33 -14 0 -25 -4 -25 -10 0 -5 11 -10 25 -10 24 0 25 -2 25 -74 0 -66 3 -77 22 -90 12 -9 32 -16 44 -16 31 0 84 20 84 32 0 6 -8 7 -17 3 -10 -4 -35 -9 -55 -12 -56 -8 -68 7 -68 88 l0 69 55 0 c30 0 55 5 55 10 0 6 -24 10 -54 10 -54 0 -55 0 -59 33 l-4 32 -1 -32z"/><path id="path14767" d="M10463 3094 c-51 -30 -93 -59 -93 -64 0 -12 190 -123 198 -116 7 7 12 4 -85 60 -46 26 -83 52 -83 56 0 4 36 29 80 55 74 43 103 66 83 65 -4 -1 -50 -26 -100 -56z"/><path id="path14769" d="M13010 3145 c0 -2 41 -28 90 -57 50 -29 90 -55 90 -58 0 -3 -42 -30 -92 -60 -51 -29 -88 -55 -82 -57 11 -4 204 107 204 117 0 7 -189 120 -201 120 -5 0 -9 -2 -9 -5z"/><path id="path14771" d="M13633 3094 c-51 -30 -93 -59 -93 -64 0 -9 150 -103 185 -116 41 -16 1 17 -75 60 -44 26 -80 51 -80 56 0 5 36 30 80 56 75 43 102 64 83 64 -4 0 -50 -25 -100 -56z"/><path id="path14773" d="M14600 3143 c0 -5 38 -30 85 -56 47 -27 85 -52 85 -57 0 -4 -37 -30 -82 -55 -96 -55 -93 -53 -85 -61 7 -7 197 105 197 116 0 7 -182 120 -194 120 -3 0 -6 -3 -6 -7z"/><path id="path14775" d="M420 3090 c0 -5 7 -10 15 -10 12 0 15 -16 15 -80 0 -64 -3 -80 -15 -80 -8 0 -15 -4 -15 -10 0 -5 16 -10 35 -10 19 0 35 5 35 10 0 6 -7 10 -15 10 -12 0 -15 13 -15 58 0 48 4 62 23 80 30 29 71 28 91 0 22 -31 22 -138 1 -138 -8 0 -15 -4 -15 -10 0 -5 16 -10 35 -10 19 0 35 5 35 10 0 6 -7 10 -15 10 -11 0 -15 18 -17 77 -3 72 -5 78 -30 92 -23 13 -32 14 -64 2 -28 -10 -39 -11 -42 -2 -5 14 -42 15 -42 1z"/><path id="path14777" d="M1740 3091 c0 -5 4 -11 10 -13 5 -1 17 -41 27 -87 10 -47 23 -86 29 -88 7 -2 20 19 30 47 10 27 21 50 25 50 4 0 15 -22 24 -50 26 -78 36 -71 60 45 9 44 20 82 26 83 22 8 6 22 -26 22 -19 0 -35 -4 -35 -10 0 -5 7 -10 15 -10 18 0 18 -7 1 -85 -14 -62 -15 -61 -39 9 -8 22 -18 41 -23 43 -6 2 -18 -19 -28 -47 -10 -27 -22 -50 -26 -50 -4 0 -11 17 -14 38 -4 20 -9 49 -12 65 -4 20 -2 27 10 27 9 0 16 5 16 10 0 6 -16 10 -35 10 -19 0 -35 -4 -35 -9z"/><path id="path14779" d="M3483 3093 c-45 -9 -22 -22 27 -16 55 6 80 -6 80 -41 0 -19 -6 -21 -61 -21 -52 0 -64 -3 -80 -24 -24 -30 -24 -46 1 -71 24 -24 70 -26 110 -5 27 14 30 14 30 0 0 -9 9 -15 25 -15 14 0 25 5 25 10 0 6 -7 10 -15 10 -12 0 -15 14 -15 70 0 100 -27 122 -127 103z m105 -118 c3 -24 -43 -55 -81 -55 -25 0 -57 23 -57 40 0 21 47 41 90 38 36 -2 46 -7 48 -23z"/><path id="path14781" d="M4760 3091 c0 -5 7 -11 15 -15 8 -3 15 -13 15 -21 0 -40 33 -156 43 -152 6 2 21 27 32 56 l22 53 18 -49 c33 -89 44 -84 65 30 7 40 20 78 28 84 22 18 10 25 -34 20 -32 -3 -35 -5 -18 -11 19 -7 20 -12 12 -57 -17 -93 -22 -97 -43 -35 -18 54 -44 75 -46 39 0 -10 -9 -36 -18 -58 l-18 -40 -12 60 c-7 33 -14 66 -16 73 -3 7 4 12 15 12 11 0 20 5 20 10 0 6 -18 10 -40 10 -22 0 -40 -4 -40 -9z"/><path id="path14783" d="M5808 3084 c-37 -20 -56 -81 -38 -124 24 -59 122 -79 171 -34 30 27 22 36 -13 14 -46 -28 -93 -26 -125 6 -21 21 -24 32 -19 62 10 68 84 95 140 51 l26 -20 0 33 c0 22 -3 29 -9 19 -6 -10 -13 -11 -29 -2 -28 15 -72 13 -104 -5z"/><path id="path14785" d="M6000 3090 c0 -5 7 -10 15 -10 13 0 15 -20 15 -120 0 -100 -2 -120 -15 -120 -8 0 -15 -4 -15 -10 0 -5 25 -10 55 -10 30 0 55 5 55 10 0 6 -13 10 -30 10 -29 0 -30 2 -30 45 0 48 4 52 34 30 42 -32 114 -7 136 45 10 24 10 39 1 70 -18 61 -91 90 -137 55 -25 -19 -34 -19 -34 0 0 9 -9 15 -25 15 -14 0 -25 -4 -25 -10z m179 -27 c12 -10 24 -35 27 -55 5 -30 2 -41 -19 -62 -17 -17 -37 -26 -57 -26 -20 0 -40 9 -57 26 -21 21 -24 32 -19 62 6 43 37 72 76 72 15 0 37 -8 49 -17z"/><path id="path14787" d="M6310 3090 c0 -5 16 -10 35 -10 l35 0 0 -80 0 -80 -40 0 c-22 0 -40 -4 -40 -10 0 -6 37 -10 90 -10 53 0 90 4 90 10 0 6 -18 10 -40 10 l-40 0 0 90 0 90 -45 0 c-25 0 -45 -4 -45 -10z"/><path id="path14789" d="M6810 3090 c0 -5 7 -10 15 -10 12 0 15 -16 15 -80 0 -64 -3 -80 -15 -80 -8 0 -15 -4 -15 -10 0 -5 18 -10 40 -10 22 0 40 5 40 10 0 6 -9 10 -20 10 -18 0 -20 7 -20 59 0 52 3 62 26 80 30 23 64 27 82 9 15 -15 16 -148 2 -148 -5 0 -10 -4 -10 -10 0 -5 16 -10 35 -10 19 0 35 5 35 10 0 6 -7 10 -15 10 -12 0 -15 15 -15 74 0 66 -3 77 -22 90 -27 19 -61 20 -91 5 -16 -9 -22 -9 -25 0 -5 14 -42 15 -42 1z"/><path id="path14791" d="M7100 3090 c0 -5 16 -10 35 -10 l35 0 0 -80 0 -80 -40 0 c-22 0 -40 -4 -40 -10 0 -6 37 -10 90 -10 53 0 90 4 90 10 0 6 -18 10 -40 10 l-40 0 0 90 0 90 -45 0 c-25 0 -45 -4 -45 -10z"/><path id="path14793" d="M7360 3090 c0 -5 9 -10 20 -10 18 0 20 -7 20 -80 0 -79 0 -80 -25 -80 -14 0 -25 -4 -25 -10 0 -6 33 -10 80 -10 47 0 80 4 80 10 0 6 -20 10 -45 10 l-45 0 0 51 c0 44 4 55 32 81 27 25 37 29 67 23 31 -6 33 -5 22 9 -18 22 -47 20 -87 -5 l-34 -21 0 21 c0 17 -6 21 -30 21 -16 0 -30 -4 -30 -10z"/><path id="path14795" d="M7580 3090 c0 -5 6 -10 14 -10 7 0 19 -15 26 -32 37 -95 64 -148 76 -148 14 0 45 63 66 133 7 23 20 42 30 45 34 9 18 22 -27 22 -25 0 -45 -4 -45 -10 0 -5 9 -10 20 -10 11 0 20 -1 20 -3 0 -16 -69 -171 -70 -157 0 3 -14 38 -30 79 -17 40 -30 75 -30 77 0 2 9 4 20 4 11 0 20 5 20 10 0 6 -20 10 -45 10 -25 0 -45 -4 -45 -10z"/><path id="path14797" d="M7870 3090 c0 -6 27 -10 60 -10 l60 0 0 -98 c0 -122 -11 -142 -76 -142 -24 0 -44 -4 -44 -10 0 -16 83 -12 108 6 21 14 22 22 22 140 l0 124 -65 0 c-37 0 -65 -4 -65 -10z"/><path id="path14799" d="M8120 3091 c0 -5 4 -11 9 -13 4 -1 26 -42 49 -91 36 -76 40 -91 30 -117 -8 -25 -15 -30 -44 -30 -19 0 -34 -4 -34 -10 0 -6 27 -10 60 -10 33 0 60 4 60 10 0 6 -9 10 -19 10 -18 0 -13 14 36 118 31 64 60 119 65 120 21 9 4 22 -27 22 -19 0 -35 -4 -35 -10 0 -5 7 -10 15 -10 8 0 15 -2 15 -5 0 -13 -64 -145 -70 -145 -6 0 -70 132 -70 145 0 3 7 5 15 5 8 0 15 5 15 10 0 6 -16 10 -35 10 -19 0 -35 -4 -35 -9z"/><path id="path14801" d="M9610 3090 c0 -5 14 -10 30 -10 l30 0 0 -80 0 -80 -40 0 c-22 0 -40 -4 -40 -10 0 -6 37 -10 90 -10 53 0 90 4 90 10 0 6 -18 10 -40 10 l-40 0 0 90 0 90 -40 0 c-22 0 -40 -4 -40 -10z"/><path id="path14803" d="M9890 3087 c-15 -8 -31 -29 -40 -55 -14 -40 -13 -46 5 -80 25 -47 79 -65 119 -39 34 22 36 22 36 -11 0 -40 -28 -62 -78 -62 -23 0 -42 -4 -42 -10 0 -19 85 -11 108 10 20 19 22 31 22 130 0 103 1 110 20 110 11 0 20 5 20 10 0 6 -11 10 -25 10 -16 0 -25 -6 -25 -15 0 -19 -9 -19 -34 0 -24 18 -53 19 -86 2z m89 -24 c12 -10 24 -35 27 -55 12 -71 -71 -115 -123 -66 -70 65 22 181 96 121z"/><path id="path14805" d="M10688 3084 c-37 -20 -56 -81 -38 -124 24 -59 104 -76 166 -35 36 24 29 38 -8 15 -72 -44 -148 -12 -148 61 0 71 85 105 144 58 l26 -20 0 33 c0 21 -3 28 -8 20 -7 -10 -15 -10 -36 -2 -37 14 -66 12 -98 -6z"/><path id="path14807" d="M10948 3084 c-37 -20 -56 -81 -38 -124 22 -54 85 -74 140 -45 35 18 50 43 50 85 0 42 -15 67 -50 85 -36 19 -67 19 -102 -1z m111 -28 c71 -75 -31 -180 -113 -115 -58 46 -19 139 59 139 20 0 39 -8 54 -24z"/><path id="path14809" d="M11140 3090 c0 -5 7 -10 15 -10 12 0 15 -16 15 -80 0 -64 -3 -80 -15 -80 -8 0 -15 -4 -15 -10 0 -5 16 -10 35 -10 19 0 35 5 35 10 0 6 -7 10 -15 10 -12 0 -15 14 -15 63 0 52 4 67 21 83 15 14 24 16 37 8 13 -9 18 -29 20 -93 3 -73 5 -81 22 -81 11 0 20 5 20 10 0 6 -7 10 -15 10 -12 0 -15 14 -15 63 0 69 20 102 57 95 15 -3 18 -15 21 -91 3 -79 5 -87 22 -87 11 0 20 5 20 10 0 6 -7 10 -15 10 -12 0 -15 15 -15 78 0 47 -5 83 -12 90 -17 17 -43 15 -58 -3 -12 -14 -15 -14 -30 0 -20 18 -41 19 -59 3 -11 -10 -14 -10 -18 0 -6 14 -43 16 -43 2z"/><path id="path14811" d="M11410 3090 c0 -5 7 -10 15 -10 13 0 15 -20 15 -120 0 -100 -2 -120 -15 -120 -8 0 -15 -4 -15 -10 0 -5 23 -10 50 -10 28 0 50 5 50 10 0 6 -11 10 -25 10 -23 0 -25 4 -25 45 l0 46 30 -16 c44 -23 78 -19 111 14 23 23 29 38 29 71 0 33 -6 48 -29 71 -33 33 -67 37 -111 14 -27 -14 -30 -14 -30 0 0 9 -9 15 -25 15 -14 0 -25 -4 -25 -10z m180 -28 c33 -27 33 -97 1 -123 -53 -43 -131 -7 -131 61 0 67 78 104 130 62z"/><path id="path14813" d="M11731 3074 c-21 -19 -34 -42 -38 -66 -5 -33 -2 -41 31 -74 33 -33 40 -36 79 -31 117 16 118 178 1 194 -35 4 -46 1 -73 -23z m112 -8 c9 -7 22 -27 28 -44 28 -80 -76 -138 -138 -76 -49 49 -10 134 61 134 17 0 39 -7 49 -14z"/><path id="path14815" d="M11960 3090 c0 -5 5 -10 10 -10 6 0 10 -33 10 -80 0 -64 -3 -80 -15 -80 -8 0 -15 -4 -15 -10 0 -5 18 -10 40 -10 22 0 40 5 40 10 0 6 -7 10 -15 10 -12 0 -15 14 -15 64 0 56 3 67 22 80 29 20 62 20 82 0 22 -22 23 -144 1 -144 -8 0 -15 -4 -15 -10 0 -5 16 -10 35 -10 19 0 35 5 35 10 0 6 -7 10 -15 10 -11 0 -15 18 -17 77 -3 72 -5 78 -30 92 -23 13 -33 14 -60 3 -21 -8 -34 -9 -36 -2 -5 13 -42 13 -42 0z"/><path id="path14817" d="M12274 3090 c-47 -19 -69 -92 -44 -141 14 -25 62 -49 97 -49 33 0 75 20 80 37 3 9 -3 8 -24 -2 -48 -25 -90 -19 -126 18 l-32 32 96 3 95 3 -4 29 c-8 59 -79 94 -138 70z m93 -25 c11 -8 23 -24 26 -35 5 -19 1 -20 -74 -20 -72 0 -79 2 -79 19 0 44 83 67 127 36z"/><path id="path14819" d="M12480 3090 c0 -5 7 -10 15 -10 12 0 15 -16 15 -80 0 -64 -3 -80 -15 -80 -8 0 -15 -4 -15 -10 0 -5 16 -10 35 -10 19 0 35 5 35 10 0 6 -7 10 -15 10 -12 0 -15 13 -15 58 0 48 4 62 23 80 30 29 71 28 91 0 22 -31 22 -138 1 -138 -8 0 -15 -4 -15 -10 0 -5 16 -10 35 -10 19 0 35 5 35 10 0 6 -7 10 -15 10 -11 0 -15 18 -17 77 -3 72 -5 78 -30 92 -23 13 -32 14 -64 2 -28 -10 -39 -11 -42 -2 -5 14 -42 15 -42 1z"/><path id="path14821" d="M13854 3090 c-96 -39 -54 -190 52 -190 32 0 94 26 94 39 0 14 -2 14 -36 -4 -40 -21 -87 -19 -118 6 -49 38 -35 49 64 49 50 0 90 4 90 9 0 4 -5 22 -11 40 -18 50 -80 73 -135 51z m100 -31 c48 -37 35 -49 -54 -49 -87 0 -100 10 -60 50 26 26 80 26 114 -1z"/><path id="path14823" d="M14070 3097 c0 -2 18 -23 40 -46 22 -23 40 -46 40 -50 0 -5 -20 -27 -45 -50 -25 -23 -45 -44 -45 -46 0 -3 18 -5 40 -5 22 0 40 5 40 10 0 6 -10 10 -22 10 -21 0 -21 1 7 30 16 17 34 30 40 30 6 0 24 -13 40 -30 22 -23 25 -30 12 -30 -9 0 -17 -4 -17 -10 0 -5 18 -10 40 -10 22 0 40 5 40 10 0 6 -3 10 -7 10 -5 0 -28 18 -53 40 l-45 39 48 46 c26 25 47 48 47 51 0 2 -16 4 -35 4 -19 0 -35 -4 -35 -10 0 -5 6 -10 14 -10 8 0 0 -14 -18 -34 l-31 -33 -27 31 c-19 23 -22 32 -12 34 28 7 13 22 -21 22 -19 0 -35 -2 -35 -3z"/><path id="path14825" d="M960 3030 c0 -19 7 -20 90 -20 83 0 90 1 90 20 0 19 -7 20 -90 20 -83 0 -90 -1 -90 -20z"/><path id="path14827" d="M9060 3030 c0 -19 7 -20 90 -20 83 0 90 1 90 20 0 19 -7 20 -90 20 -83 0 -90 -1 -90 -20z"/><path id="path14829" d="M10120 3030 c0 -19 7 -20 90 -20 83 0 90 1 90 20 0 19 -7 20 -90 20 -83 0 -90 -1 -90 -20z"/><path id="path14831" d="M13354 2945 c-8 -21 2 -45 19 -45 8 0 20 7 27 15 10 12 10 18 0 30 -7 8 -19 15 -27 15 -7 0 -16 -7 -19 -15z"/><path id="path14833" d="M2260 2790 c0 -6 50 -10 130 -10 80 0 130 4 130 10 0 6 -50 10 -130 10 -80 0 -130 -4 -130 -10z"/><path id="path14835" d="M3670 2790 c0 -6 50 -10 130 -10 80 0 130 4 130 10 0 6 -50 10 -130 10 -80 0 -130 -4 -130 -10z"/><path id="path14837" d="M6370 2195 c0 -14 5 -25 10 -25 6 0 10 11 10 25 0 14 -4 25 -10 25 -5 0 -10 -11 -10 -25z"/><path id="path14839" d="M7160 2195 c0 -14 5 -25 10 -25 6 0 10 11 10 25 0 14 -4 25 -10 25 -5 0 -10 -11 -10 -25z"/><path id="path14841" d="M7960 2195 c0 -14 5 -25 10 -25 6 0 10 11 10 25 0 14 -4 25 -10 25 -5 0 -10 -11 -10 -25z"/><path id="path14843" d="M9660 2195 c0 -16 6 -25 15 -25 9 0 15 9 15 25 0 16 -6 25 -15 25 -9 0 -15 -9 -15 -25z"/><path id="path14845" d="M670 2190 c0 -5 7 -10 15 -10 12 0 15 -19 15 -114 0 -101 -2 -115 -17 -119 -12 -3 -8 -5 9 -6 14 0 28 4 30 11 3 8 11 7 28 -5 60 -42 140 5 140 81 0 33 -6 45 -31 66 -34 29 -75 33 -105 11 -30 -23 -34 -19 -34 40 0 52 -1 55 -25 55 -14 0 -25 -4 -25 -10z m181 -109 c52 -42 17 -131 -51 -131 -42 0 -80 35 -80 75 0 63 80 97 131 56z"/><path id="path14847" d="M1291 2187 c-14 -6 -27 -18 -29 -26 -4 -11 1 -10 19 2 45 32 109 15 109 -28 0 -26 -25 -45 -59 -45 -32 0 -25 -17 11 -24 43 -8 58 -23 58 -57 0 -52 -61 -74 -121 -43 -36 18 -52 11 -23 -11 46 -35 132 -26 154 16 17 31 11 67 -14 87 -24 18 -24 19 -5 35 41 35 8 107 -48 107 -16 0 -39 -6 -52 -13z"/><path id="path14849" d="M1592 2184 c-12 -8 -22 -26 -22 -40 0 -19 -5 -24 -25 -24 -14 0 -25 -4 -25 -10 0 -5 11 -10 25 -10 24 0 25 -2 25 -75 l0 -75 -30 0 c-16 0 -30 -4 -30 -10 0 -6 35 -10 85 -10 50 0 85 4 85 10 0 6 -20 10 -45 10 l-45 0 0 75 0 75 45 0 c25 0 45 5 45 10 0 6 -20 10 -45 10 -41 0 -45 2 -45 25 0 28 33 42 75 31 31 -8 54 2 34 15 -22 14 -83 10 -107 -7z"/><path id="path14851" d="M2066 2179 c-14 -11 -26 -27 -26 -35 0 -19 5 -18 34 11 14 14 37 25 51 25 29 0 65 -32 65 -57 0 -10 -36 -52 -80 -93 -44 -41 -80 -81 -80 -88 0 -9 25 -12 90 -12 72 0 90 3 90 14 0 8 -4 18 -10 21 -5 3 -10 1 -10 -4 0 -7 -27 -11 -69 -11 l-68 0 75 73 c85 84 94 114 48 154 -34 29 -75 29 -110 2z"/><path id="path14853" d="M2693 2176 c-24 -21 -28 -32 -31 -93 -6 -99 25 -153 88 -153 76 0 108 176 45 244 -30 32 -66 33 -102 2z m91 -15 c39 -43 26 -190 -19 -207 -26 -10 -61 4 -73 31 -17 37 -15 131 3 165 18 36 62 41 89 11z"/><path id="path14855" d="M3527 2182 c-10 -10 -17 -28 -17 -40 0 -17 -6 -22 -25 -22 -14 0 -25 -4 -25 -10 0 -5 11 -10 25 -10 24 0 25 -2 25 -75 l0 -75 -30 0 c-16 0 -30 -4 -30 -10 0 -6 35 -10 85 -10 50 0 85 4 85 10 0 6 -22 10 -50 10 l-50 0 0 75 0 75 50 0 c28 0 50 5 50 10 0 6 -22 10 -50 10 -54 0 -65 14 -33 45 13 13 27 16 60 11 42 -5 59 6 27 18 -31 12 -81 6 -97 -12z"/><path id="path14857" d="M4036 2179 c-14 -11 -26 -28 -26 -37 0 -13 6 -10 25 11 29 30 60 34 93 11 39 -27 28 -55 -53 -133 -41 -40 -75 -79 -75 -87 0 -11 19 -14 85 -14 78 0 85 2 85 20 0 11 -4 20 -10 20 -5 0 -10 -4 -10 -10 0 -6 -29 -10 -66 -10 l-66 0 76 71 c65 61 76 76 76 104 0 40 -38 75 -80 75 -15 0 -39 -9 -54 -21z"/><path id="path14859" d="M4862 2133 c-52 -90 -62 -110 -62 -122 0 -7 24 -11 60 -11 57 0 60 -1 60 -25 0 -20 -5 -25 -25 -25 -14 0 -25 -4 -25 -10 0 -5 20 -10 45 -10 25 0 45 5 45 10 0 6 -4 10 -10 10 -14 0 -12 47 3 54 10 5 10 7 0 12 -9 4 -13 33 -13 95 0 82 -2 89 -20 89 -13 0 -31 -20 -58 -67z m55 -110 c-3 -2 -25 -3 -50 -1 l-45 3 47 80 46 80 3 -79 c2 -43 1 -80 -1 -83z"/><path id="path14861" d="M5096 2175 c-39 -42 -47 -118 -20 -185 26 -65 82 -80 125 -34 21 23 24 35 24 109 0 74 -3 86 -24 109 -32 34 -74 34 -105 1z m101 -25 c26 -51 13 -170 -21 -192 -22 -15 -56 -8 -71 15 -22 35 -23 148 -1 182 23 35 74 32 93 -5z"/><path id="path14863" d="M5536 2179 c-14 -11 -26 -28 -26 -36 0 -12 7 -9 25 11 29 31 74 35 98 8 31 -34 20 -59 -58 -134 -41 -39 -75 -77 -75 -85 0 -10 21 -13 85 -13 81 0 85 1 85 22 0 17 -3 19 -12 10 -7 -7 -40 -12 -76 -12 l-64 0 76 73 c85 81 95 109 51 152 -30 31 -73 32 -109 4z"/><path id="path14865" d="M6680 2190 c0 -5 9 -10 20 -10 17 0 20 -7 20 -45 0 -48 -4 -52 -34 -30 -52 40 -146 -11 -146 -79 0 -72 91 -120 150 -79 17 12 25 13 28 5 2 -7 16 -11 30 -11 17 1 21 3 10 6 -16 4 -18 19 -18 129 l0 124 -30 0 c-16 0 -30 -4 -30 -10z m15 -115 c14 -13 25 -36 25 -50 0 -36 -42 -75 -80 -75 -38 0 -80 39 -80 75 0 36 42 75 80 75 19 0 40 -9 55 -25z"/><path id="path14867" d="M8400 2175 c0 -14 5 -25 10 -25 6 0 10 7 10 15 0 12 13 15 60 15 41 0 60 -4 60 -12 0 -7 -16 -62 -35 -123 -40 -127 -37 -115 -26 -115 10 0 81 217 81 249 0 20 -5 21 -80 21 -79 0 -80 0 -80 -25z"/><path id="path14869" d="M8660 2190 c0 -5 9 -10 20 -10 19 0 20 -7 20 -115 0 -108 -1 -115 -20 -115 -11 0 -20 -4 -20 -10 0 -5 11 -10 25 -10 23 0 25 4 25 40 0 56 22 62 66 19 19 -19 30 -35 24 -37 -25 -9 -7 -22 30 -22 22 0 40 5 40 10 0 6 -8 10 -18 10 -10 0 -37 20 -60 43 l-43 44 36 31 c20 18 42 32 50 32 8 0 15 5 15 10 0 6 -18 10 -40 10 -22 0 -40 -4 -40 -10 0 -5 5 -10 12 -10 13 0 -51 -59 -64 -60 -5 0 -8 36 -8 80 0 79 0 80 -25 80 -14 0 -25 -4 -25 -10z"/><path id="path14871" d="M9300 2190 c0 -5 7 -10 15 -10 12 0 15 -19 15 -114 0 -101 -2 -115 -17 -119 -12 -3 -8 -5 9 -6 14 0 28 4 30 11 3 8 11 7 28 -5 60 -42 140 5 140 81 0 33 -6 45 -31 66 -34 29 -75 33 -105 11 -30 -23 -34 -19 -34 40 0 52 -1 55 -25 55 -14 0 -25 -4 -25 -10z m181 -109 c52 -42 17 -131 -51 -131 -42 0 -80 35 -80 75 0 63 80 97 131 56z"/><path id="path14873" d="M2950 2150 c0 -23 -4 -30 -20 -30 -11 0 -20 -4 -20 -10 0 -5 9 -10 20 -10 18 0 20 -7 20 -65 0 -86 21 -110 87 -102 25 3 52 13 62 22 15 17 14 17 -9 10 -100 -29 -120 -17 -120 71 l0 64 55 0 c30 0 55 5 55 10 0 6 -25 10 -55 10 -54 0 -55 0 -55 30 0 17 -4 30 -10 30 -5 0 -10 -13 -10 -30z"/><path id="path14875" d="M12798 2174 c-5 -4 -8 -18 -8 -31 0 -16 -6 -23 -20 -23 -11 0 -20 -4 -20 -10 0 -5 9 -10 20 -10 18 0 20 -7 20 -65 0 -98 39 -126 127 -90 41 17 40 31 -1 15 -37 -14 -79 -13 -94 2 -7 7 -12 39 -12 75 l0 63 55 0 c30 0 55 5 55 10 0 6 -24 10 -54 10 -54 0 -55 1 -58 31 -2 17 -6 27 -10 23z"/><path id="path14877" d="M14382 2153 c-2 -28 -6 -33 -27 -33 -14 0 -25 -4 -25 -10 0 -5 11 -10 25 -10 24 0 25 -2 25 -69 0 -61 3 -72 22 -85 12 -9 32 -16 44 -16 31 0 84 20 84 32 0 6 -8 7 -17 3 -10 -4 -35 -9 -55 -12 -56 -8 -68 7 -68 83 l0 64 55 0 c30 0 55 5 55 10 0 6 -24 10 -54 10 -54 0 -55 0 -59 33 l-4 32 -1 -32z"/><path id="path14879" d="M10470 2119 c-47 -28 -89 -55 -93 -59 -5 -4 35 -33 88 -65 53 -31 99 -54 103 -51 7 7 12 4 -85 60 -46 26 -83 49 -83 51 0 2 36 24 80 50 74 44 103 66 83 65 -4 -1 -46 -24 -93 -51z"/><path id="path14881" d="M13010 2165 c0 -2 40 -28 90 -56 101 -60 103 -48 -20 -119 -41 -24 -70 -45 -64 -47 10 -3 207 108 201 113 -1 1 -44 27 -95 58 -85 51 -112 64 -112 51z"/><path id="path14883" d="M13640 2119 c-47 -28 -89 -54 -93 -59 -8 -7 133 -99 178 -116 41 -16 1 17 -75 60 -44 26 -80 49 -80 51 0 2 36 25 80 51 75 43 102 64 83 64 -4 0 -46 -23 -93 -51z"/><path id="path14885" d="M14600 2163 c0 -5 38 -30 85 -56 47 -27 85 -50 85 -52 0 -2 -37 -25 -82 -50 -96 -55 -93 -53 -85 -61 5 -5 197 103 197 111 0 4 -188 115 -194 115 -3 0 -6 -3 -6 -7z"/><path id="path14887" d="M420 2110 c0 -5 7 -10 15 -10 12 0 15 -15 15 -75 0 -60 -3 -75 -15 -75 -8 0 -15 -4 -15 -10 0 -5 16 -10 35 -10 19 0 35 5 35 10 0 6 -7 10 -15 10 -11 0 -15 13 -15 53 0 43 5 58 23 75 30 29 71 28 91 0 22 -30 22 -128 1 -128 -8 0 -15 -4 -15 -10 0 -5 16 -10 35 -10 19 0 35 5 35 10 0 6 -7 10 -15 10 -11 0 -15 17 -17 72 -3 67 -5 73 -30 87 -23 13 -32 14 -64 2 -28 -10 -39 -11 -42 -2 -5 14 -42 15 -42 1z"/><path id="path14889" d="M1740 2111 c0 -5 4 -11 10 -13 5 -1 17 -39 27 -82 10 -44 23 -81 30 -83 6 -2 19 19 29 47 10 27 21 50 25 50 4 0 15 -23 24 -51 10 -28 22 -48 28 -46 7 2 20 39 30 83 10 43 23 81 28 82 22 8 6 22 -26 22 -19 0 -35 -4 -35 -10 0 -5 7 -10 15 -10 18 0 18 -9 1 -80 -11 -44 -15 -51 -21 -35 -27 69 -35 85 -44 85 -5 0 -17 -20 -27 -45 -9 -25 -20 -45 -24 -45 -4 0 -11 17 -15 38 -3 20 -9 47 -12 60 -4 16 -1 22 11 22 9 0 16 5 16 10 0 6 -16 10 -35 10 -19 0 -35 -4 -35 -9z"/><path id="path14891" d="M3212 2105 c-12 -9 -22 -22 -22 -29 0 -20 34 -46 62 -46 44 0 88 -20 88 -41 0 -41 -94 -55 -130 -19 -27 27 -30 25 -30 -10 0 -16 5 -30 10 -30 6 0 10 4 10 10 0 6 9 6 26 0 40 -16 79 -12 108 11 49 39 22 86 -56 96 -57 7 -76 22 -52 40 28 20 82 16 96 -7 18 -28 28 -25 28 8 0 27 -2 28 -58 30 -39 2 -64 -3 -80 -13z"/><path id="path14893" d="M4303 2113 c-45 -9 -22 -22 27 -16 53 6 80 -6 80 -36 0 -13 -11 -16 -60 -16 -68 0 -92 -16 -92 -61 0 -51 62 -70 122 -39 27 14 30 14 30 0 0 -9 9 -15 25 -15 14 0 25 5 25 10 0 6 -7 10 -15 10 -12 0 -15 14 -15 65 0 95 -29 117 -127 98z m105 -110 c2 -16 -5 -26 -27 -37 -53 -28 -101 -18 -101 20 0 30 29 44 85 41 33 -2 41 -6 43 -24z"/><path id="path14895" d="M4520 2111 c0 -5 4 -11 9 -13 5 -1 27 -40 50 -86 40 -79 41 -83 26 -112 -13 -25 -22 -30 -50 -30 -19 0 -35 -4 -35 -10 0 -6 28 -10 65 -10 37 0 65 4 65 10 0 6 -9 10 -20 10 -18 0 -14 12 36 113 31 61 60 114 65 115 22 9 6 22 -26 22 -19 0 -35 -4 -35 -10 0 -5 7 -10 15 -10 8 0 15 -2 15 -5 0 -10 -65 -135 -70 -135 -5 0 -70 125 -70 135 0 3 7 5 15 5 8 0 15 5 15 10 0 6 -16 10 -35 10 -19 0 -35 -4 -35 -9z"/><path id="path14897" d="M5811 2106 c-98 -54 -38 -191 75 -173 35 6 74 31 74 48 0 5 -15 0 -32 -11 -46 -28 -93 -26 -123 5 -72 71 38 168 119 104 l26 -20 0 33 c0 22 -3 29 -9 19 -6 -10 -13 -11 -29 -2 -27 15 -71 13 -101 -3z"/><path id="path14899" d="M6000 2110 c0 -5 7 -10 15 -10 12 0 15 -19 15 -115 0 -96 -3 -115 -15 -115 -8 0 -15 -4 -15 -10 0 -5 25 -10 55 -10 30 0 55 5 55 10 0 6 -13 10 -30 10 -29 0 -30 2 -30 45 0 48 4 52 34 30 52 -40 146 11 146 79 0 69 -93 121 -146 81 -25 -19 -34 -19 -34 0 0 9 -9 15 -25 15 -14 0 -25 -4 -25 -10z m185 -35 c14 -13 25 -36 25 -50 0 -36 -42 -75 -80 -75 -38 0 -80 39 -80 75 0 36 42 75 80 75 19 0 40 -9 55 -25z"/><path id="path14901" d="M6310 2110 c0 -5 16 -10 35 -10 l35 0 0 -75 0 -75 -40 0 c-22 0 -40 -4 -40 -10 0 -6 37 -10 90 -10 53 0 90 4 90 10 0 6 -18 10 -40 10 l-40 0 0 85 0 85 -45 0 c-25 0 -45 -4 -45 -10z"/><path id="path14903" d="M6810 2110 c0 -5 7 -10 15 -10 12 0 15 -15 15 -75 0 -60 -3 -75 -15 -75 -8 0 -15 -4 -15 -10 0 -5 18 -10 40 -10 22 0 40 5 40 10 0 6 -9 10 -20 10 -18 0 -20 7 -20 54 0 47 4 57 26 75 30 23 64 27 82 9 15 -15 16 -138 2 -138 -5 0 -10 -4 -10 -10 0 -5 16 -10 35 -10 19 0 35 5 35 10 0 6 -7 10 -15 10 -12 0 -15 14 -15 69 0 61 -3 72 -22 85 -27 19 -61 20 -91 5 -16 -9 -22 -9 -25 0 -5 14 -42 15 -42 1z"/><path id="path14905" d="M7100 2110 c0 -5 16 -10 35 -10 l35 0 0 -75 0 -75 -40 0 c-22 0 -40 -4 -40 -10 0 -6 37 -10 90 -10 53 0 90 4 90 10 0 6 -18 10 -40 10 l-40 0 0 85 0 85 -45 0 c-25 0 -45 -4 -45 -10z"/><path id="path14907" d="M7360 2110 c0 -5 9 -10 20 -10 18 0 20 -7 20 -75 0 -73 -1 -75 -25 -75 -14 0 -25 -4 -25 -10 0 -6 33 -10 80 -10 47 0 80 4 80 10 0 6 -20 10 -45 10 l-45 0 0 49 c0 45 3 53 35 76 28 22 40 25 67 20 29 -7 31 -6 19 9 -18 22 -47 20 -87 -5 l-34 -21 0 21 c0 17 -6 21 -30 21 -16 0 -30 -4 -30 -10z"/><path id="path14909" d="M7580 2110 c0 -5 6 -10 13 -10 8 0 31 -38 52 -85 25 -58 43 -85 53 -83 8 2 29 39 47 83 19 46 40 81 49 83 34 7 14 22 -29 22 -25 0 -45 -4 -45 -10 0 -5 9 -10 20 -10 25 0 25 -1 -14 -84 l-32 -70 -28 65 c-15 35 -30 70 -33 77 -3 7 3 12 16 12 12 0 21 5 21 10 0 6 -20 10 -45 10 -25 0 -45 -4 -45 -10z"/><path id="path14911" d="M7870 2110 c0 -6 27 -10 60 -10 l60 0 0 -93 c0 -116 -11 -137 -76 -137 -24 0 -44 -4 -44 -10 0 -16 83 -12 108 6 21 14 22 22 22 135 l0 119 -65 0 c-37 0 -65 -4 -65 -10z"/><path id="path14913" d="M8120 2111 c0 -5 4 -11 9 -13 5 -1 27 -40 50 -85 36 -72 39 -85 30 -112 -9 -26 -16 -31 -45 -31 -19 0 -34 -4 -34 -10 0 -6 27 -10 60 -10 33 0 60 4 60 10 0 6 -9 10 -20 10 -18 0 -14 12 36 113 31 61 60 114 65 115 22 9 6 22 -26 22 -19 0 -35 -4 -35 -10 0 -5 7 -10 15 -10 8 0 15 -2 15 -5 0 -10 -65 -135 -70 -135 -5 0 -70 125 -70 135 0 3 7 5 15 5 8 0 15 5 15 10 0 6 -16 10 -35 10 -19 0 -35 -4 -35 -9z"/><path id="path14915" d="M9610 2110 c0 -5 14 -10 30 -10 l30 0 0 -75 0 -75 -40 0 c-22 0 -40 -4 -40 -10 0 -6 37 -10 90 -10 53 0 90 4 90 10 0 6 -18 10 -40 10 l-40 0 0 85 0 85 -40 0 c-22 0 -40 -4 -40 -10z"/><path id="path14917" d="M9893 2110 c-24 -10 -53 -58 -53 -87 0 -10 9 -32 20 -50 24 -40 77 -54 115 -29 33 21 35 21 35 -12 0 -40 -28 -62 -78 -62 -23 0 -42 -4 -42 -10 0 -19 85 -11 108 10 20 19 22 31 22 125 0 98 1 105 20 105 11 0 20 5 20 10 0 6 -11 10 -25 10 -16 0 -25 -6 -25 -15 0 -19 -9 -19 -34 0 -22 17 -50 18 -83 5z m92 -35 c14 -13 25 -36 25 -50 0 -14 -11 -37 -25 -50 -69 -70 -170 30 -103 102 29 31 72 30 103 -2z"/><path id="path14919" d="M10691 2106 c-96 -53 -38 -193 72 -172 36 7 77 32 77 46 0 6 -15 1 -32 -10 -69 -42 -148 -12 -148 56 0 66 87 98 144 53 l26 -20 0 33 c0 21 -3 28 -8 20 -7 -10 -15 -10 -36 -2 -36 13 -66 12 -95 -4z"/><path id="path14921" d="M10949 2105 c-72 -39 -55 -151 26 -171 110 -28 175 119 75 171 -36 19 -67 19 -101 0z m111 -29 c67 -73 -35 -167 -114 -105 -19 15 -26 30 -26 54 0 67 92 101 140 51z"/><path id="path14923" d="M11140 2110 c0 -5 7 -10 15 -10 12 0 15 -15 15 -75 0 -60 -3 -75 -15 -75 -8 0 -15 -4 -15 -10 0 -5 16 -10 35 -10 19 0 35 5 35 10 0 6 -7 10 -15 10 -12 0 -15 13 -15 58 0 47 4 63 21 78 15 14 24 16 37 8 13 -9 18 -29 20 -88 3 -68 5 -76 22 -76 11 0 20 5 20 10 0 6 -7 10 -15 10 -12 0 -15 13 -15 58 0 64 21 97 57 90 15 -3 18 -15 21 -86 3 -74 5 -82 22 -82 11 0 20 5 20 10 0 6 -7 10 -15 10 -12 0 -15 15 -15 73 0 43 -5 78 -12 85 -17 17 -43 15 -58 -3 -12 -14 -15 -14 -30 0 -20 18 -41 19 -59 3 -11 -10 -14 -10 -18 0 -6 14 -43 16 -43 2z"/><path id="path14925" d="M11410 2110 c0 -5 7 -10 15 -10 12 0 15 -19 15 -115 0 -96 -3 -115 -15 -115 -8 0 -15 -4 -15 -10 0 -5 23 -10 50 -10 28 0 50 5 50 10 0 6 -11 10 -25 10 -23 0 -25 4 -25 45 l0 46 30 -16 c44 -23 78 -19 111 14 21 22 29 39 29 66 0 27 -8 44 -29 66 -33 33 -67 37 -111 14 -27 -14 -30 -14 -30 0 0 9 -9 15 -25 15 -14 0 -25 -4 -25 -10z m181 -29 c52 -42 17 -131 -51 -131 -42 0 -80 35 -80 75 0 63 80 97 131 56z"/><path id="path14927" d="M11725 2087 c-23 -23 -35 -44 -35 -62 0 -18 12 -39 35 -62 32 -32 39 -35 78 -30 116 16 116 168 0 184 -39 5 -46 2 -78 -30z m116 0 c43 -33 46 -80 6 -117 -46 -44 -137 -7 -137 55 0 57 85 97 131 62z"/><path id="path14929" d="M11960 2110 c0 -5 5 -10 10 -10 6 0 10 -32 10 -75 0 -60 -3 -75 -15 -75 -8 0 -15 -4 -15 -10 0 -5 18 -10 40 -10 22 0 40 5 40 10 0 6 -7 10 -15 10 -12 0 -15 13 -15 59 0 51 3 62 22 75 29 20 62 20 82 0 22 -22 23 -134 1 -134 -8 0 -15 -4 -15 -10 0 -5 16 -10 35 -10 19 0 35 5 35 10 0 6 -7 10 -15 10 -11 0 -15 17 -17 72 -3 67 -5 73 -30 87 -23 13 -33 14 -60 3 -21 -8 -34 -9 -36 -2 -5 13 -42 13 -42 0z"/><path id="path14931" d="M12274 2110 c-46 -18 -68 -85 -44 -131 14 -25 62 -49 97 -49 33 0 75 20 80 37 3 9 -3 8 -24 -2 -48 -25 -90 -19 -126 18 l-32 32 96 3 96 3 -5 24 c-10 55 -82 88 -138 65z m86 -20 c11 -6 24 -19 30 -30 10 -19 7 -20 -70 -20 -63 0 -80 3 -80 14 0 36 77 59 120 36z"/><path id="path14933" d="M12480 2110 c0 -5 7 -10 15 -10 12 0 15 -15 15 -75 0 -60 -3 -75 -15 -75 -8 0 -15 -4 -15 -10 0 -5 16 -10 35 -10 19 0 35 5 35 10 0 6 -7 10 -15 10 -11 0 -15 13 -15 53 0 43 5 58 23 75 30 29 71 28 91 0 22 -30 22 -128 1 -128 -8 0 -15 -4 -15 -10 0 -5 16 -10 35 -10 19 0 35 5 35 10 0 6 -7 10 -15 10 -11 0 -15 17 -17 72 -3 67 -5 73 -30 87 -23 13 -32 14 -64 2 -28 -10 -39 -11 -42 -2 -5 14 -42 15 -42 1z"/><path id="path14935" d="M13854 2110 c-94 -38 -53 -180 52 -180 32 0 94 26 94 39 0 14 -2 14 -36 -4 -40 -21 -87 -19 -118 6 -49 38 -35 49 64 49 50 0 90 4 90 10 0 24 -26 63 -51 76 -31 16 -63 17 -95 4z m100 -31 c14 -11 26 -25 26 -30 0 -5 -36 -9 -80 -9 -84 0 -94 6 -60 40 26 26 80 26 114 -1z"/><path id="path14937" d="M14070 2115 c0 -2 19 -22 43 -45 l42 -40 -47 -46 c-27 -25 -48 -47 -48 -50 0 -2 18 -4 40 -4 22 0 40 5 40 10 0 6 -10 10 -22 10 -21 0 -21 1 7 30 16 17 34 30 40 30 6 0 24 -13 40 -30 22 -23 25 -30 12 -30 -9 0 -17 -4 -17 -10 0 -5 18 -10 40 -10 22 0 40 3 40 8 -1 4 -23 24 -50 45 -28 21 -50 42 -50 45 0 4 20 23 45 42 24 19 44 38 45 43 0 4 -16 7 -35 7 -19 0 -35 -4 -35 -10 0 -5 7 -10 15 -10 10 0 3 -11 -17 -29 l-33 -30 -28 27 c-22 21 -25 28 -13 30 30 6 16 22 -19 22 -19 0 -35 -2 -35 -5z"/><path id="path14939" d="M960 2055 c0 -12 17 -15 90 -15 73 0 90 3 90 15 0 12 -17 15 -90 15 -73 0 -90 -3 -90 -15z"/><path id="path14941" d="M9060 2055 c0 -12 17 -15 90 -15 73 0 90 3 90 15 0 12 -17 15 -90 15 -73 0 -90 -3 -90 -15z"/><path id="path14943" d="M10120 2055 c0 -12 17 -15 90 -15 73 0 90 3 90 15 0 12 -17 15 -90 15 -73 0 -90 -3 -90 -15z"/><path id="path14945" d="M13354 1975 c-8 -21 2 -45 19 -45 8 0 20 7 27 15 10 12 10 18 0 30 -7 8 -19 15 -27 15 -7 0 -16 -7 -19 -15z"/><path id="path14947" d="M2260 1820 c0 -6 50 -10 130 -10 80 0 130 4 130 10 0 6 -50 10 -130 10 -80 0 -130 -4 -130 -10z"/><path id="path14949" d="M3670 1820 c0 -6 50 -10 130 -10 80 0 130 4 130 10 0 6 -50 10 -130 10 -80 0 -130 -4 -130 -10z"/><path id="path14951" d="M3270 1215 c0 -16 6 -25 15 -25 9 0 15 9 15 25 0 16 -6 25 -15 25 -9 0 -15 -9 -15 -25z"/><path id="path14953" d="M9660 1215 c0 -16 6 -25 15 -25 9 0 15 9 15 25 0 16 -6 25 -15 25 -9 0 -15 -9 -15 -25z"/><path id="path14955" d="M670 1210 c0 -5 7 -10 15 -10 12 0 15 -19 15 -114 0 -101 -2 -115 -17 -119 -12 -3 -8 -5 9 -6 14 0 28 4 30 11 3 8 11 7 28 -5 60 -42 140 5 140 81 0 33 -6 45 -31 66 -34 29 -75 33 -105 11 -30 -23 -34 -19 -34 40 0 52 -1 55 -25 55 -14 0 -25 -4 -25 -10z m181 -109 c52 -42 17 -131 -51 -131 -42 0 -80 35 -80 75 0 63 80 97 131 56z"/><path id="path14957" d="M1291 1207 c-14 -6 -27 -18 -29 -26 -4 -11 1 -10 19 2 45 32 109 15 109 -28 0 -26 -25 -45 -59 -45 -32 0 -25 -17 11 -24 43 -8 58 -23 58 -57 0 -52 -61 -74 -121 -43 -36 18 -52 11 -23 -11 46 -35 132 -26 154 16 17 31 11 67 -14 87 -24 18 -24 19 -5 35 41 35 8 107 -48 107 -16 0 -39 -6 -52 -13z"/><path id="path14959" d="M1592 1204 c-12 -8 -22 -26 -22 -40 0 -19 -5 -24 -25 -24 -14 0 -25 -4 -25 -10 0 -5 11 -10 25 -10 24 0 25 -2 25 -75 l0 -75 -30 0 c-16 0 -30 -4 -30 -10 0 -6 35 -10 85 -10 50 0 85 4 85 10 0 6 -20 10 -45 10 l-45 0 0 75 0 75 45 0 c25 0 45 5 45 10 0 6 -20 10 -45 10 -41 0 -45 2 -45 25 0 28 33 42 75 31 31 -8 54 2 34 15 -22 14 -83 10 -107 -7z"/><path id="path14961" d="M2066 1199 c-14 -11 -26 -27 -26 -35 0 -19 5 -18 34 11 14 14 37 25 51 25 29 0 65 -32 65 -57 0 -10 -36 -52 -80 -93 -44 -41 -80 -81 -80 -88 0 -9 25 -12 90 -12 72 0 90 3 90 14 0 8 -4 18 -10 21 -5 3 -10 1 -10 -4 0 -7 -27 -11 -69 -11 l-68 0 75 73 c85 84 94 114 48 154 -34 29 -75 29 -110 2z"/><path id="path14963" d="M2693 1196 c-24 -21 -28 -32 -31 -93 -6 -99 25 -153 88 -153 76 0 108 176 45 244 -30 32 -66 33 -102 2z m91 -15 c39 -43 26 -190 -19 -207 -26 -10 -61 4 -73 31 -17 37 -15 131 3 165 18 36 62 41 89 11z"/><path id="path14965" d="M3544 1210 c-32 -13 -72 -67 -80 -106 -14 -74 35 -154 93 -154 34 0 73 42 73 80 0 38 -39 80 -73 80 -13 0 -36 -9 -51 -21 l-26 -20 0 21 c0 57 57 110 120 110 18 0 29 4 25 10 -7 12 -52 12 -81 0z m47 -130 c12 -7 19 -21 19 -42 0 -61 -59 -89 -100 -48 -26 26 -25 48 2 77 23 25 48 29 79 13z"/><path id="path14967" d="M4058 1135 c-27 -47 -48 -92 -48 -100 0 -12 13 -15 55 -15 52 0 55 -1 55 -25 0 -18 -5 -25 -20 -25 -11 0 -20 -4 -20 -10 0 -5 20 -10 45 -10 25 0 45 5 45 10 0 6 -4 10 -10 10 -14 0 -12 47 3 54 10 5 10 7 0 12 -9 4 -13 33 -13 95 0 86 -1 89 -22 89 -18 0 -33 -18 -70 -85z m59 -92 c-3 -2 -23 -3 -45 -1 l-41 3 42 75 42 75 3 -74 c2 -40 1 -75 -1 -78z"/><path id="path14969" d="M4308 1204 c-16 -8 -28 -19 -28 -24 0 -14 12 -12 34 5 37 28 106 8 106 -32 0 -17 -35 -43 -58 -43 -33 0 -27 -15 10 -25 19 -6 39 -22 48 -38 14 -27 14 -29 -13 -53 -32 -28 -60 -30 -101 -9 -33 18 -36 18 -36 5 0 -15 56 -40 90 -40 37 0 90 47 90 80 0 11 -10 31 -23 44 -23 23 -23 24 -5 46 24 30 23 46 -7 75 -28 28 -66 32 -107 9z"/><path id="path14971" d="M5536 1199 c-14 -11 -26 -28 -26 -36 0 -12 7 -9 25 11 29 31 74 35 98 8 31 -34 20 -59 -58 -134 -41 -39 -75 -77 -75 -85 0 -10 21 -13 85 -13 81 0 85 1 85 22 0 17 -3 19 -12 10 -7 -7 -40 -12 -76 -12 l-64 0 76 73 c85 81 95 109 51 152 -30 31 -73 32 -109 4z"/><path id="path14973" d="M6420 1210 c0 -5 9 -10 20 -10 17 0 20 -7 20 -46 0 -25 -3 -44 -7 -42 -5 2 -20 10 -35 17 -61 31 -138 -16 -138 -84 0 -71 81 -117 144 -81 20 11 32 14 34 7 2 -6 16 -10 30 -10 24 2 24 2 5 6 -22 4 -23 8 -23 129 l0 124 -25 0 c-14 0 -25 -4 -25 -10z m1 -103 c43 -33 46 -80 6 -117 -46 -43 -127 -8 -127 55 0 57 76 97 121 62z"/><path id="path14975" d="M6856 1199 c-14 -11 -26 -28 -26 -36 0 -12 7 -9 25 11 29 31 74 35 98 8 31 -34 20 -59 -58 -134 -41 -39 -75 -77 -75 -85 0 -10 21 -13 85 -13 81 0 85 1 85 22 0 17 -3 19 -12 10 -7 -7 -40 -12 -76 -12 l-64 0 76 73 c85 81 95 109 51 152 -30 31 -73 32 -109 4z"/><path id="path14977" d="M7480 1210 c0 -5 7 -10 15 -10 11 0 15 -12 15 -45 0 -48 -4 -52 -34 -30 -31 23 -72 18 -108 -14 -25 -22 -32 -36 -32 -66 0 -72 86 -119 144 -78 17 12 25 13 28 5 2 -7 16 -11 30 -11 17 1 21 3 10 6 -16 4 -18 19 -18 129 l0 124 -25 0 c-14 0 -25 -4 -25 -10z m5 -115 c14 -13 25 -36 25 -50 0 -36 -42 -75 -80 -75 -38 0 -80 39 -80 75 0 36 42 75 80 75 19 0 40 -9 55 -25z"/><path id="path14979" d="M9300 1210 c0 -5 7 -10 15 -10 12 0 15 -19 15 -114 0 -101 -2 -115 -17 -119 -12 -3 -8 -5 9 -6 14 0 28 4 30 11 3 8 11 7 28 -5 60 -42 140 5 140 81 0 33 -6 45 -31 66 -34 29 -75 33 -105 11 -30 -23 -34 -19 -34 40 0 52 -1 55 -25 55 -14 0 -25 -4 -25 -10z m181 -109 c52 -42 17 -131 -51 -131 -42 0 -80 35 -80 75 0 63 80 97 131 56z"/><path id="path14981" d="M12798 1194 c-5 -4 -8 -18 -8 -31 0 -16 -6 -23 -20 -23 -11 0 -20 -4 -20 -10 0 -5 9 -10 20 -10 18 0 20 -7 20 -65 0 -98 39 -126 127 -90 41 17 40 31 -1 15 -37 -14 -79 -13 -94 2 -7 7 -12 39 -12 75 l0 63 55 0 c30 0 55 5 55 10 0 6 -24 10 -54 10 -54 0 -55 1 -58 31 -2 17 -6 27 -10 23z"/><path id="path14983" d="M14382 1173 c-2 -28 -6 -33 -27 -33 -14 0 -25 -4 -25 -10 0 -5 11 -10 25 -10 24 0 25 -2 25 -69 0 -61 3 -72 22 -85 12 -9 32 -16 44 -16 31 0 84 20 84 32 0 6 -8 7 -17 3 -10 -4 -35 -9 -55 -12 -56 -8 -68 7 -68 83 l0 64 55 0 c30 0 55 5 55 10 0 6 -24 10 -54 10 -54 0 -55 0 -59 33 l-4 32 -1 -32z"/><path id="path14985" d="M10470 1139 c-47 -28 -89 -55 -93 -59 -5 -4 35 -33 88 -65 53 -31 99 -54 103 -51 7 7 12 4 -85 60 -46 26 -83 49 -83 51 0 2 36 24 80 50 74 44 103 66 83 65 -4 -1 -46 -24 -93 -51z"/><path id="path14987" d="M13010 1185 c0 -2 40 -28 90 -56 101 -60 103 -48 -20 -119 -41 -24 -70 -45 -64 -47 10 -3 207 108 201 113 -1 1 -44 27 -95 58 -85 51 -112 64 -112 51z"/><path id="path14989" d="M13640 1139 c-47 -28 -89 -54 -93 -59 -8 -7 133 -99 178 -116 41 -16 1 17 -75 60 -44 26 -80 49 -80 51 0 2 36 25 80 51 75 43 102 64 83 64 -4 0 -46 -23 -93 -51z"/><path id="path14991" d="M14600 1183 c0 -5 38 -30 85 -56 47 -27 85 -50 85 -52 0 -2 -37 -25 -82 -50 -96 -55 -93 -53 -85 -61 5 -5 197 103 197 111 0 4 -188 115 -194 115 -3 0 -6 -3 -6 -7z"/><path id="path14993" d="M420 1130 c0 -5 7 -10 15 -10 12 0 15 -15 15 -75 0 -60 -3 -75 -15 -75 -8 0 -15 -4 -15 -10 0 -5 16 -10 35 -10 19 0 35 5 35 10 0 6 -7 10 -15 10 -11 0 -15 13 -15 53 0 43 5 58 23 75 30 29 71 28 91 0 22 -30 22 -128 1 -128 -8 0 -15 -4 -15 -10 0 -5 16 -10 35 -10 19 0 35 5 35 10 0 6 -7 10 -15 10 -11 0 -15 17 -17 72 -3 67 -5 73 -30 87 -23 13 -32 14 -64 2 -28 -10 -39 -11 -42 -2 -5 14 -42 15 -42 1z"/><path id="path14995" d="M1740 1131 c0 -5 4 -11 10 -13 5 -1 17 -39 27 -82 10 -44 23 -81 30 -83 6 -2 19 19 29 47 10 27 21 50 25 50 4 0 15 -23 24 -51 10 -28 22 -48 28 -46 7 2 20 39 30 83 10 43 23 81 28 82 22 8 6 22 -26 22 -19 0 -35 -4 -35 -10 0 -5 7 -10 15 -10 18 0 18 -9 1 -80 -11 -44 -15 -51 -21 -35 -27 69 -35 85 -44 85 -5 0 -17 -20 -27 -45 -9 -25 -20 -45 -24 -45 -4 0 -11 17 -15 38 -3 20 -9 47 -12 60 -4 16 -1 22 11 22 9 0 16 5 16 10 0 6 -16 10 -35 10 -19 0 -35 -4 -35 -9z"/><path id="path14997" d="M2900 1130 c0 -5 7 -10 15 -10 12 0 15 -14 15 -63 0 -99 37 -130 110 -92 27 14 30 14 30 0 0 -8 9 -15 20 -15 11 0 20 5 20 10 0 6 -4 10 -10 10 -6 0 -10 35 -10 85 l0 85 -30 0 c-16 0 -30 -4 -30 -10 0 -5 9 -10 20 -10 18 0 20 -7 20 -58 0 -53 -2 -59 -29 -75 -67 -39 -91 -18 -91 80 0 71 -1 73 -25 73 -14 0 -25 -4 -25 -10z"/><path id="path14999" d="M3180 1130 c0 -6 27 -10 60 -10 l60 0 0 -99 c0 -117 -8 -131 -76 -131 -24 0 -44 -4 -44 -10 0 -5 22 -10 49 -10 42 0 53 4 70 26 18 23 21 41 21 135 l0 109 -70 0 c-40 0 -70 -4 -70 -10z"/><path id="path15001" d="M4574 1130 c-55 -22 -71 -99 -31 -145 16 -20 35 -28 69 -32 42 -5 50 -3 78 25 79 80 -9 195 -116 152z m100 -31 c55 -43 18 -129 -56 -129 -36 0 -78 40 -78 75 0 35 42 75 78 75 16 0 41 -9 56 -21z"/><path id="path15003" d="M4844 1130 c-55 -22 -71 -99 -30 -147 21 -24 31 -28 79 -28 40 0 61 5 76 19 33 30 25 38 -16 16 -21 -11 -50 -20 -66 -20 -35 0 -77 40 -77 75 0 63 95 100 140 55 27 -27 30 -25 30 11 0 25 -3 29 -13 21 -8 -7 -18 -7 -27 -2 -18 12 -68 12 -96 0z"/><path id="path15005" d="M5030 1130 c0 -5 3 -10 8 -10 4 0 16 -38 26 -85 12 -56 23 -85 32 -85 8 0 14 6 15 13 0 6 9 30 19 52 l18 40 22 -52 c13 -29 26 -53 31 -53 8 0 19 34 38 120 5 24 15 46 20 48 24 8 9 22 -24 22 -19 0 -35 -4 -35 -10 0 -5 7 -10 16 -10 11 0 14 -5 10 -16 -3 -9 -9 -33 -12 -55 -9 -55 -19 -56 -39 -4 -9 25 -21 45 -26 45 -6 0 -20 -24 -32 -52 l-22 -53 -11 50 c-17 69 -16 85 1 85 8 0 15 5 15 10 0 6 -16 10 -35 10 -19 0 -35 -4 -35 -10z"/><path id="path15007" d="M5750 1130 c0 -5 7 -10 15 -10 12 0 15 -14 15 -63 0 -99 37 -130 110 -92 27 14 30 14 30 0 0 -8 9 -15 20 -15 11 0 20 5 20 10 0 6 -4 10 -10 10 -6 0 -10 35 -10 85 l0 85 -30 0 c-16 0 -30 -4 -30 -10 0 -5 9 -10 20 -10 18 0 20 -7 20 -58 0 -53 -2 -59 -29 -75 -67 -39 -91 -18 -91 80 0 71 -1 73 -25 73 -14 0 -25 -4 -25 -10z"/><path id="path15009" d="M6000 1130 c0 -5 7 -10 15 -10 10 0 31 -32 55 -85 21 -47 45 -85 52 -85 7 0 29 38 48 85 25 61 40 85 53 85 9 0 17 5 17 10 0 6 -20 10 -45 10 -44 0 -63 -15 -27 -22 17 -3 16 -10 -14 -78 l-33 -75 -34 75 c-32 69 -33 75 -16 78 37 6 18 22 -26 22 -25 0 -45 -4 -45 -10z"/><path id="path15011" d="M6552 1133 c2 -5 23 -47 48 -95 38 -75 43 -91 34 -115 -8 -23 -16 -29 -47 -31 -62 -5 -41 -22 28 -22 37 0 65 4 65 10 0 6 -9 10 -20 10 -11 0 -20 2 -20 5 0 16 112 225 120 225 6 0 10 5 10 10 0 6 -16 10 -35 10 -19 0 -35 -4 -35 -10 0 -5 7 -10 15 -10 12 0 7 -16 -20 -70 -19 -38 -37 -70 -40 -70 -3 0 -21 32 -40 70 -33 65 -34 70 -15 70 11 0 20 5 20 10 0 6 -16 10 -36 10 -20 0 -34 -3 -32 -7z"/><path id="path15013" d="M7103 1116 c-23 -20 -28 -32 -28 -71 0 -39 5 -51 28 -71 32 -27 74 -31 103 -9 27 20 34 19 34 -8 0 -43 -27 -67 -76 -67 -24 0 -44 -4 -44 -10 0 -18 86 -11 111 9 22 18 24 28 27 125 3 83 7 106 18 106 8 0 14 5 14 10 0 6 -11 10 -25 10 -16 0 -25 -6 -25 -15 0 -19 -9 -19 -34 0 -29 22 -71 18 -103 -9z m108 -15 c50 -40 17 -131 -48 -131 -32 0 -73 42 -73 75 0 33 41 75 73 75 14 0 35 -8 48 -19z"/><path id="path15015" d="M7623 1116 c-23 -20 -28 -32 -28 -71 0 -39 5 -51 28 -71 32 -27 74 -31 103 -9 27 20 34 19 34 -8 0 -43 -27 -67 -76 -67 -24 0 -44 -4 -44 -10 0 -18 86 -11 111 9 22 18 24 28 27 125 3 83 7 106 18 106 8 0 14 5 14 10 0 6 -11 10 -25 10 -16 0 -25 -6 -25 -15 0 -19 -9 -19 -34 0 -29 22 -71 18 -103 -9z m108 -15 c50 -40 17 -131 -48 -131 -32 0 -73 42 -73 75 0 33 41 75 73 75 14 0 35 -8 48 -19z"/><path id="path15017" d="M7903 1130 c-24 -10 -53 -58 -53 -87 0 -10 9 -32 20 -50 24 -40 73 -52 119 -29 l31 17 0 -29 c0 -40 -28 -62 -78 -62 -23 0 -42 -4 -42 -10 0 -5 20 -10 45 -10 35 0 52 6 70 25 23 22 25 31 25 125 0 82 3 100 15 100 8 0 15 5 15 10 0 6 -11 10 -25 10 -16 0 -25 -6 -25 -15 0 -14 -3 -14 -30 0 -32 17 -54 18 -87 5z m92 -35 c14 -13 25 -36 25 -50 0 -33 -42 -75 -75 -75 -33 0 -75 42 -75 75 0 33 42 75 75 75 14 0 37 -11 50 -25z"/><path id="path15019" d="M8175 1133 c-48 -12 -37 -23 16 -17 45 5 58 3 73 -11 27 -27 15 -37 -46 -38 -86 -3 -125 -50 -78 -97 24 -24 64 -26 104 -5 35 18 36 18 36 0 0 -9 9 -15 25 -15 14 0 25 5 25 10 0 6 -9 10 -20 10 -18 0 -20 7 -20 69 0 61 -3 72 -22 85 -22 16 -53 18 -93 9z m102 -99 c17 -45 -104 -83 -131 -41 -9 15 -7 22 13 38 30 24 109 27 118 3z"/><path id="path15021" d="M8439 1125 c-51 -28 -62 -111 -19 -150 30 -27 99 -30 138 -6 17 12 32 25 32 31 0 5 -15 1 -32 -10 -42 -26 -88 -25 -122 1 -56 44 -18 129 59 129 18 0 44 -9 59 -21 l26 -20 0 31 c0 25 -3 30 -13 22 -8 -7 -18 -7 -27 -2 -22 14 -71 11 -101 -5z"/><path id="path15023" d="M8630 1130 c0 -5 7 -10 15 -10 12 0 15 -19 15 -115 0 -96 -3 -115 -15 -115 -8 0 -15 -4 -15 -10 0 -5 25 -10 55 -10 30 0 55 5 55 10 0 6 -13 10 -30 10 -29 0 -30 2 -30 45 0 48 4 52 34 30 52 -40 146 11 146 79 0 69 -93 121 -146 81 -25 -19 -34 -19 -34 0 0 9 -9 15 -25 15 -14 0 -25 -4 -25 -10z m185 -35 c14 -13 25 -36 25 -50 0 -36 -42 -75 -80 -75 -38 0 -80 39 -80 75 0 36 42 75 80 75 19 0 40 -9 55 -25z"/><path id="path15025" d="M9610 1130 c0 -5 14 -10 30 -10 l30 0 0 -75 0 -75 -40 0 c-22 0 -40 -4 -40 -10 0 -6 37 -10 90 -10 53 0 90 4 90 10 0 6 -18 10 -40 10 l-40 0 0 85 0 85 -40 0 c-22 0 -40 -4 -40 -10z"/><path id="path15027" d="M9893 1130 c-24 -10 -53 -58 -53 -87 0 -10 9 -32 20 -50 24 -40 77 -54 115 -29 33 21 35 21 35 -12 0 -40 -28 -62 -78 -62 -23 0 -42 -4 -42 -10 0 -19 85 -11 108 10 20 19 22 31 22 125 0 98 1 105 20 105 11 0 20 5 20 10 0 6 -11 10 -25 10 -16 0 -25 -6 -25 -15 0 -19 -9 -19 -34 0 -22 17 -50 18 -83 5z m92 -35 c14 -13 25 -36 25 -50 0 -14 -11 -37 -25 -50 -69 -70 -170 30 -103 102 29 31 72 30 103 -2z"/><path id="path15029" d="M10691 1126 c-96 -53 -38 -193 72 -172 36 7 77 32 77 46 0 6 -15 1 -32 -10 -69 -42 -148 -12 -148 56 0 66 87 98 144 53 l26 -20 0 33 c0 21 -3 28 -8 20 -7 -10 -15 -10 -36 -2 -36 13 -66 12 -95 -4z"/><path id="path15031" d="M10949 1125 c-72 -39 -55 -151 26 -171 110 -28 175 119 75 171 -36 19 -67 19 -101 0z m111 -29 c67 -73 -35 -167 -114 -105 -19 15 -26 30 -26 54 0 67 92 101 140 51z"/><path id="path15033" d="M11140 1130 c0 -5 7 -10 15 -10 12 0 15 -15 15 -75 0 -60 -3 -75 -15 -75 -8 0 -15 -4 -15 -10 0 -5 16 -10 35 -10 19 0 35 5 35 10 0 6 -7 10 -15 10 -12 0 -15 13 -15 58 0 47 4 63 21 78 15 14 24 16 37 8 13 -9 18 -29 20 -88 3 -68 5 -76 22 -76 11 0 20 5 20 10 0 6 -7 10 -15 10 -12 0 -15 13 -15 58 0 64 21 97 57 90 15 -3 18 -15 21 -86 3 -74 5 -82 22 -82 11 0 20 5 20 10 0 6 -7 10 -15 10 -12 0 -15 15 -15 73 0 43 -5 78 -12 85 -17 17 -43 15 -58 -3 -12 -14 -15 -14 -30 0 -20 18 -41 19 -59 3 -11 -10 -14 -10 -18 0 -6 14 -43 16 -43 2z"/><path id="path15035" d="M11410 1130 c0 -5 7 -10 15 -10 12 0 15 -19 15 -115 0 -96 -3 -115 -15 -115 -8 0 -15 -4 -15 -10 0 -5 23 -10 50 -10 28 0 50 5 50 10 0 6 -11 10 -25 10 -23 0 -25 4 -25 45 l0 46 30 -16 c44 -23 78 -19 111 14 21 22 29 39 29 66 0 27 -8 44 -29 66 -33 33 -67 37 -111 14 -27 -14 -30 -14 -30 0 0 9 -9 15 -25 15 -14 0 -25 -4 -25 -10z m181 -29 c52 -42 17 -131 -51 -131 -42 0 -80 35 -80 75 0 63 80 97 131 56z"/><path id="path15037" d="M11725 1107 c-23 -23 -35 -44 -35 -62 0 -18 12 -39 35 -62 32 -32 39 -35 78 -30 116 16 116 168 0 184 -39 5 -46 2 -78 -30z m116 0 c43 -33 46 -80 6 -117 -46 -44 -137 -7 -137 55 0 57 85 97 131 62z"/><path id="path15039" d="M11960 1130 c0 -5 5 -10 10 -10 6 0 10 -32 10 -75 0 -60 -3 -75 -15 -75 -8 0 -15 -4 -15 -10 0 -5 18 -10 40 -10 22 0 40 5 40 10 0 6 -7 10 -15 10 -12 0 -15 13 -15 59 0 51 3 62 22 75 29 20 62 20 82 0 22 -22 23 -134 1 -134 -8 0 -15 -4 -15 -10 0 -5 16 -10 35 -10 19 0 35 5 35 10 0 6 -7 10 -15 10 -11 0 -15 17 -17 72 -3 67 -5 73 -30 87 -23 13 -33 14 -60 3 -21 -8 -34 -9 -36 -2 -5 13 -42 13 -42 0z"/><path id="path15041" d="M12274 1130 c-46 -18 -68 -85 -44 -131 14 -25 62 -49 97 -49 33 0 75 20 80 37 3 9 -3 8 -24 -2 -48 -25 -90 -19 -126 18 l-32 32 96 3 96 3 -5 24 c-10 55 -82 88 -138 65z m86 -20 c11 -6 24 -19 30 -30 10 -19 7 -20 -70 -20 -63 0 -80 3 -80 14 0 36 77 59 120 36z"/><path id="path15043" d="M12480 1130 c0 -5 7 -10 15 -10 12 0 15 -15 15 -75 0 -60 -3 -75 -15 -75 -8 0 -15 -4 -15 -10 0 -5 16 -10 35 -10 19 0 35 5 35 10 0 6 -7 10 -15 10 -11 0 -15 13 -15 53 0 43 5 58 23 75 30 29 71 28 91 0 22 -30 22 -128 1 -128 -8 0 -15 -4 -15 -10 0 -5 16 -10 35 -10 19 0 35 5 35 10 0 6 -7 10 -15 10 -11 0 -15 17 -17 72 -3 67 -5 73 -30 87 -23 13 -32 14 -64 2 -28 -10 -39 -11 -42 -2 -5 14 -42 15 -42 1z"/><path id="path15045" d="M13854 1130 c-94 -38 -53 -180 52 -180 32 0 94 26 94 39 0 14 -2 14 -36 -4 -40 -21 -87 -19 -118 6 -49 38 -35 49 64 49 50 0 90 4 90 10 0 24 -26 63 -51 76 -31 16 -63 17 -95 4z m100 -31 c14 -11 26 -25 26 -30 0 -5 -36 -9 -80 -9 -84 0 -94 6 -60 40 26 26 80 26 114 -1z"/><path id="path15047" d="M14070 1135 c0 -2 19 -22 43 -45 l42 -40 -47 -46 c-27 -25 -48 -47 -48 -50 0 -2 18 -4 40 -4 22 0 40 5 40 10 0 6 -10 10 -22 10 -21 0 -21 1 7 30 16 17 34 30 40 30 6 0 24 -13 40 -30 22 -23 25 -30 12 -30 -9 0 -17 -4 -17 -10 0 -5 18 -10 40 -10 22 0 40 3 40 8 -1 4 -23 24 -50 45 -28 21 -50 42 -50 45 0 4 20 23 45 42 24 19 44 38 45 43 0 4 -16 7 -35 7 -19 0 -35 -4 -35 -10 0 -5 7 -10 15 -10 10 0 3 -11 -17 -29 l-33 -30 -28 27 c-22 21 -25 28 -13 30 30 6 16 22 -19 22 -19 0 -35 -2 -35 -5z"/><path id="path15049" d="M960 1075 c0 -12 17 -15 90 -15 73 0 90 3 90 15 0 12 -17 15 -90 15 -73 0 -90 -3 -90 -15z"/><path id="path15051" d="M9060 1075 c0 -12 17 -15 90 -15 73 0 90 3 90 15 0 12 -17 15 -90 15 -73 0 -90 -3 -90 -15z"/><path id="path15053" d="M10120 1075 c0 -12 17 -15 90 -15 73 0 90 3 90 15 0 12 -17 15 -90 15 -73 0 -90 -3 -90 -15z"/><path id="path15055" d="M13354 995 c-8 -21 2 -45 19 -45 8 0 20 7 27 15 10 12 10 18 0 30 -7 8 -19 15 -27 15 -7 0 -16 -7 -19 -15z"/><path id="path15057" d="M2260 840 c0 -6 50 -10 130 -10 80 0 130 4 130 10 0 6 -50 10 -130 10 -80 0 -130 -4 -130 -10z"/><path id="path15059" d="M3670 840 c0 -6 50 -10 130 -10 80 0 130 4 130 10 0 6 -50 10 -130 10 -80 0 -130 -4 -130 -10z"/></g></svg>